<svg width="90" height="90" fill="none" xmlns="http://www.w3.org/2000/svg"><g clip-path="url(#clip0)"><path d="M77.908 15.738C70.112 7.981 59.742 3.706 48.724 3.706c-11.221 0-21.72 4.404-29.554 12.4-.852.867-.833 2.267.037 3.133.87.848 2.278.83 3.148-.037 7-7.13 16.351-11.055 26.37-11.055 20.313-.019 36.83 16.417 36.83 36.63 0 20.214-16.517 36.65-36.83 36.65-20.314 0-36.832-16.436-36.832-36.65v-.46l3.666 3.649a2.239 2.239 0 003.148 0c.87-.866.87-2.267 0-3.133l-7.444-7.425a2.232 2.232 0 00-3.148 0L.653 44.832a2.205 2.205 0 000 3.133c.87.866 2.277.866 3.148 0l3.666-3.649v.46c0 10.965 4.296 21.283 12.092 29.04 7.796 7.758 18.166 12.033 29.184 12.033s21.388-4.275 29.184-12.032C85.722 66.06 90 55.741 90 44.777c0-10.964-4.296-21.282-12.092-29.04z" fill="#000"/><path d="M60.538 29.834L33.244 56.976a2.205 2.205 0 000 3.132c.425.424 1 .645 1.574.645.574 0 1.13-.221 1.574-.645l27.294-27.16c.87-.866.87-2.266 0-3.133a2.249 2.249 0 00-3.148.019zm-7.147 18.279c-3.092 3.077-3.092 8.107 0 11.184a7.934 7.934 0 005.63 2.322c2.129 0 4.129-.83 5.629-2.322 3.092-3.077 3.092-8.107 0-11.184a7.934 7.934 0 00-5.63-2.322c-2.13 0-4.11.83-5.629 2.322zm8.11 8.07a3.465 3.465 0 01-2.48 1.014 3.542 3.542 0 01-2.482-1.014 3.48 3.48 0 010-4.938 3.465 3.465 0 012.481-1.013c.945 0 1.815.368 2.482 1.013a3.48 3.48 0 010 4.938zm-22.998-28.32c-2.13 0-4.13.83-5.63 2.322a7.855 7.855 0 00-2.333 5.601c0 2.12.833 4.11 2.333 5.602a7.934 7.934 0 005.63 2.322c2.13 0 4.129-.83 5.629-2.322a7.855 7.855 0 002.333-5.602 7.855 7.855 0 00-2.333-5.601c-1.518-1.492-3.5-2.322-5.63-2.322zm2.48 10.393a3.465 3.465 0 01-2.48 1.013 3.543 3.543 0 01-2.482-1.013 3.43 3.43 0 01-1.018-2.47c0-.94.37-1.805 1.018-2.469a3.465 3.465 0 012.482-1.013c.944 0 1.814.368 2.48 1.013a3.43 3.43 0 011.02 2.47 3.46 3.46 0 01-1.02 2.469z" fill="#1F99CF"/></g><defs><clipPath id="clip0"><path fill="#fff" d="M0 0h90v89.556H0z"/></clipPath></defs></svg>