<svg width="90" height="90" fill="none" xmlns="http://www.w3.org/2000/svg"><g clip-path="url(#clip0)"><path d="M33.427 89.555H7.297a2.896 2.896 0 01-2.902-2.888c0-1.596 1.3-2.89 2.903-2.89h26.129a2.896 2.896 0 012.903 2.89c0 1.595-1.3 2.888-2.903 2.888zM27.62 80.89H7.298A2.897 2.897 0 014.395 78c0-1.596 1.3-2.89 2.903-2.89H27.62A2.896 2.896 0 0130.523 78c0 1.595-1.3 2.89-2.903 2.89zm-11.612-8.668h-8.71a2.896 2.896 0 01-2.903-2.889c0-1.595 1.3-2.889 2.903-2.889h8.71a2.896 2.896 0 012.903 2.89c0 1.594-1.3 2.888-2.903 2.888z" fill="#1F99CF"/><path d="M47.943 8.813V5.778h2.903a2.896 2.896 0 002.903-2.89A2.895 2.895 0 0050.846 0H39.234a2.897 2.897 0 00-2.904 2.889c0 1.595 1.3 2.889 2.904 2.889h2.903v3.035C21.08 10.305 4.395 27.785 4.395 49.11c0 1.595 1.3 2.889 2.903 2.889A2.896 2.896 0 0010.2 49.11c0-19.115 15.628-34.666 34.839-34.666 19.21 0 34.838 15.551 34.838 34.666 0 19.116-15.629 34.667-34.838 34.667a2.896 2.896 0 00-2.903 2.889c0 1.595 1.3 2.889 2.903 2.889 22.412 0 40.645-18.144 40.645-40.445 0-21.326-16.685-38.806-37.742-40.298z" fill="#000"/><path d="M45.622 54.307a5.55 5.55 0 004-2.012L66.26 32.06a2.88 2.88 0 00-.193-3.872 2.909 2.909 0 00-3.892-.193L41.84 44.55a5.508 5.508 0 00-2.023 3.982 5.504 5.504 0 001.615 4.171 5.556 5.556 0 004.189 1.604z" fill="#1F99CF"/></g><defs><clipPath id="clip0"><path fill="#fff" d="M0 0h90v89.556H0z"/></clipPath></defs></svg>