<svg width="90" height="90" fill="none" xmlns="http://www.w3.org/2000/svg"><g clip-path="url(#clip0)"><path d="M29.079 34.75H13.402a2.63 2.63 0 00-2.635 2.623 2.63 2.63 0 002.635 2.623H29.08a2.63 2.63 0 002.635-2.623 2.63 2.63 0 00-2.635-2.622zm-5.146 13.038h-10.53a2.63 2.63 0 00-2.636 2.623 2.63 2.63 0 002.635 2.622h10.53a2.63 2.63 0 002.637-2.622 2.63 2.63 0 00-2.636-2.623z" fill="#1F99CF"/><path d="M68.718 39.053V5.266c0-2.89-2.364-5.242-5.268-5.242H5.268C2.363.023 0 2.375 0 5.265v57.894c0 2.892 2.363 5.244 5.268 5.244h34.01c2.055 11.98 12.562 21.13 25.179 21.13C78.542 89.533 90 78.13 90 64.116c0-12.57-9.218-23.038-21.282-25.063zM25.689 5.269h17.34v9.479l-7.688-3.072a2.65 2.65 0 00-1.965 0l-7.687 3.072v-9.48zm13.245 57.89l-33.662.001-.004-57.89 15.15-.003v13.36c0 1.86 1.893 3.121 3.618 2.434l10.323-4.126 10.323 4.126c1.75.693 3.618-.595 3.618-2.434V5.266l15.146-.001.004 33.456c-13.3.514-24.022 11.197-24.516 24.437zm25.523 21.13c-9.7 0-17.83-6.814-19.808-15.885-3.135-14.241 9.669-27.105 24.069-24.008 9.139 1.951 16.01 10.052 16.01 19.72 0 11.124-9.094 20.173-20.271 20.173z" fill="#000"/><path d="M70.907 57.613l-9.655 7.267-2.76-3.502c-1.598-2.027-4.86-.771-4.705 1.78.063 1.077.213 1.018 4.913 6.988a2.649 2.649 0 003.665.474l11.72-8.823a2.615 2.615 0 00.514-3.673 2.645 2.645 0 00-3.692-.51z" fill="#1F99CF"/></g><defs><clipPath id="clip0"><path fill="#fff" d="M0 0h90v89.555H0z"/></clipPath></defs></svg>