<svg width="90" height="90" fill="none" xmlns="http://www.w3.org/2000/svg"><g clip-path="url(#clip0)"><path d="M87.186 38.26l-.318-27.098a2.812 2.812 0 00-2.28-2.716c-1.254-.244-18.417.994-38.41-8.188a2.825 2.825 0 00-2.358 0C31.897 5.734 19.307 8.394 5.624 8.394a2.806 2.806 0 00-2.812 2.799v27.099c0 24.593 17.267 46.013 41.598 51.202.388.082.79.082 1.178 0 24.762-5.28 41.786-27.289 41.598-51.235zM45 83.89C23.777 79.079 8.437 59.999 8.437 38.293v-24.32c12.534-.25 25.11-3.035 36.562-8.102 11.366 5.029 23.837 7.81 36.277 8.096l.285 24.341C81.554 60.008 66.216 79.079 45 83.891z" fill="#000"/><path d="M59.062 36.382h-2.813v-4.198c0-6.172-5.047-11.194-11.25-11.194s-11.25 5.022-11.25 11.194v4.198h-2.813a2.806 2.806 0 00-2.812 2.799V61.57a2.806 2.806 0 002.813 2.798h28.125a2.806 2.806 0 002.812-2.798V39.18a2.806 2.806 0 00-2.813-2.798zm-19.688-4.198c0-3.086 2.523-5.597 5.625-5.597s5.625 2.51 5.625 5.597v4.198h-11.25v-4.198zm16.875 26.587h-22.5V41.979h22.5v16.792z" fill="#1F99CF"/><path d="M44.999 46.177a2.806 2.806 0 00-2.813 2.799v2.799A2.806 2.806 0 0045 54.573a2.806 2.806 0 002.813-2.798v-2.8A2.806 2.806 0 0045 46.177z" fill="#1F99CF"/></g><defs><clipPath id="clip0"><path fill="#fff" d="M0 0h90v89.556H0z"/></clipPath></defs></svg>