<svg width="128" height="128" fill="none" xmlns="http://www.w3.org/2000/svg"><path d="M127.5 63.75c0 35.208-28.542 63.75-63.75 63.75S0 98.958 0 63.75 28.542 0 63.75 0s63.75 28.542 63.75 63.75zm-122.35 0c0 32.364 26.236 58.599 58.6 58.599 32.364 0 58.599-26.236 58.599-58.599 0-32.364-26.236-58.6-58.599-58.6-32.364 0-58.6 26.236-58.6 58.6z" fill="#1F99CF"/><path d="M20.634 80.358c-.798 0-1.419-.27-1.863-.81-.444-.546-.666-1.347-.666-2.403s.222-1.866.666-2.43c.444-.57 1.065-.855 1.863-.855.528 0 .969.12 1.323.36.36.24.639.58.837 1.017l-.612.37a1.714 1.714 0 00-.576-.775c-.258-.198-.582-.297-.972-.297-.27 0-.513.051-.729.153-.21.102-.39.25-.54.441a2.03 2.03 0 00-.333.675 3.014 3.014 0 00-.117.873v.936c0 .648.15 1.155.45 1.521.3.366.723.55 1.269.55.402 0 .738-.103 1.008-.307.27-.21.468-.486.594-.828l.603.378a2.477 2.477 0 01-.855 1.053c-.372.252-.822.378-1.35.378zm5.05 0c-.318 0-.606-.057-.864-.17a1.934 1.934 0 01-.657-.487 2.421 2.421 0 01-.423-.765 3.298 3.298 0 01-.144-1.008c0-.366.048-.699.144-.999.102-.3.243-.555.423-.765.186-.216.405-.38.657-.495.258-.114.546-.17.864-.17.312 0 .59.056.837.17.246.114.456.273.63.477.174.198.306.435.396.711.096.276.144.58.144.91v.341h-3.34v.216c0 .198.03.384.09.558.067.168.157.315.27.441.12.126.265.225.433.297.174.072.369.108.585.108.294 0 .549-.069.765-.207.222-.138.393-.336.513-.594l.513.37c-.15.317-.384.575-.702.773-.318.192-.696.288-1.134.288zm0-4.257c-.198 0-.378.036-.54.108a1.206 1.206 0 00-.423.288 1.514 1.514 0 00-.369 1.008v.063h2.565v-.099c0-.414-.114-.744-.342-.99-.222-.252-.52-.378-.891-.378zm3.193-.495h.72v.756h.036c.12-.294.294-.51.522-.648.234-.144.513-.216.837-.216.288 0 .55.057.783.171.234.114.432.276.594.486.168.21.294.465.378.765.09.3.135.636.135 1.008s-.045.708-.135 1.008c-.084.3-.21.555-.378.765a1.66 1.66 0 01-.594.486 1.764 1.764 0 01-.783.171c-.63 0-1.083-.288-1.359-.864h-.036v2.556h-.72v-6.444zm1.917 4.104c.408 0 .73-.126.963-.378.234-.258.351-.594.351-1.008v-.792c0-.414-.117-.747-.35-.999-.235-.258-.556-.387-.964-.387-.162 0-.318.024-.468.072-.144.042-.27.102-.378.18a.921.921 0 00-.26.288.711.711 0 00-.09.351v1.728c0 .15.03.285.09.405.065.114.152.213.26.297.108.078.234.138.378.18.15.042.306.063.468.063zm3.304-4.104h2.34c.378 0 .675.108.891.324.216.21.324.495.324.855 0 .582-.303.91-.909.981v.036c.36.03.627.144.801.342.18.192.27.432.27.72 0 .186-.03.363-.09.531a1.263 1.263 0 01-.243.441c-.108.126-.24.228-.396.306a1.253 1.253 0 01-.531.108h-2.457v-4.644zm2.241 4.05c.216 0 .387-.057.513-.17.126-.115.189-.277.189-.487v-.207c0-.21-.063-.372-.189-.486-.126-.114-.297-.17-.513-.17h-1.521v1.52h1.521zm-.09-2.106c.198 0 .351-.048.459-.144.114-.102.171-.246.171-.432v-.198c0-.186-.057-.327-.171-.423-.108-.102-.261-.153-.459-.153h-1.431v1.35h1.431zm2.868-1.944h.702v2.574l-.073 1.116h.036l.577-.99 1.853-2.7h.666v4.644h-.702v-2.574l.072-1.116h-.035l-.577.99-1.854 2.7h-.665v-4.644zm7.019 4.752c-.325 0-.615-.057-.873-.17a1.825 1.825 0 01-.657-.487 2.267 2.267 0 01-.405-.765c-.09-.3-.135-.636-.135-1.008s.045-.708.135-1.008c.096-.3.23-.555.405-.765.18-.21.399-.372.657-.486.258-.114.549-.17.873-.17.461 0 .83.101 1.107.305.282.198.492.46.63.783l-.603.306a1.093 1.093 0 00-.414-.558c-.192-.132-.433-.198-.72-.198-.217 0-.405.036-.567.108a1.041 1.041 0 00-.405.288c-.108.12-.19.267-.243.441a1.817 1.817 0 00-.081.558v.792c0 .408.108.744.324 1.008.222.258.545.387.971.387.583 0 1.003-.27 1.26-.81l.523.351c-.15.336-.375.603-.675.801-.294.198-.663.297-1.108.297zm4.924-4.752h3.628v4.644h-.72v-4.014H51.78v4.014h-.72v-4.644zm5.16 0h.72v.756h.036c.12-.294.294-.51.522-.648.234-.144.513-.216.837-.216.288 0 .55.057.783.171.234.114.432.276.594.486.168.21.294.465.378.765.09.3.135.636.135 1.008s-.045.708-.135 1.008c-.084.3-.21.555-.378.765a1.66 1.66 0 01-.594.486 1.764 1.764 0 01-.783.171c-.63 0-1.083-.288-1.359-.864h-.036v2.556h-.72v-6.444zm1.917 4.104c.408 0 .73-.126.963-.378.234-.258.351-.594.351-1.008v-.792c0-.414-.117-.747-.35-.999-.235-.258-.556-.387-.964-.387-.162 0-.318.024-.468.072-.144.042-.27.102-.378.18a.92.92 0 00-.26.288.711.711 0 00-.09.351v1.728c0 .15.03.285.09.405.065.114.152.213.26.297.108.078.234.138.378.18.15.042.306.063.468.063zm5.05.648c-.318 0-.606-.057-.864-.17a1.934 1.934 0 01-.657-.487 2.421 2.421 0 01-.423-.765 3.298 3.298 0 01-.144-1.008c0-.366.048-.699.144-.999.102-.3.243-.555.423-.765.186-.216.405-.38.657-.495.258-.114.546-.17.864-.17.312 0 .59.056.837.17.246.114.456.273.63.477.174.198.306.435.396.711.096.276.144.58.144.91v.341h-3.34v.216c0 .198.03.384.09.558.067.168.157.315.27.441.12.126.265.225.433.297.174.072.369.108.585.108.294 0 .549-.069.765-.207.222-.138.393-.336.513-.594l.513.37c-.15.317-.384.575-.702.773-.318.192-.696.288-1.134.288zm0-4.257c-.198 0-.378.036-.54.108a1.206 1.206 0 00-.423.288 1.514 1.514 0 00-.369 1.008v.063h2.565v-.099c0-.414-.114-.744-.342-.99-.222-.252-.52-.378-.891-.378zm2.5 3.519h.531c.186-.3.336-.675.45-1.125a6.33 6.33 0 00.171-1.548v-1.34h3.141v4.013h.774v1.89h-.657v-1.26h-3.753v1.26h-.657v-1.89zm3.573 0v-3.384h-1.737v.747c0 .618-.054 1.146-.162 1.584-.102.432-.225.783-.369 1.053h2.268zm2.49-4.014h.72v1.935h2.322v-1.935h.72v4.644h-.72v-2.079H72.47v2.08h-.72v-4.645zm8.666 4.644c-.27 0-.465-.072-.585-.216a1.094 1.094 0 01-.216-.54h-.045c-.102.288-.27.504-.504.648a1.566 1.566 0 01-.837.216c-.492 0-.876-.126-1.152-.378-.27-.252-.405-.594-.405-1.026 0-.438.16-.774.477-1.008.324-.234.825-.35 1.503-.35h.918v-.46c0-.33-.09-.582-.27-.756-.18-.174-.456-.26-.828-.26-.282 0-.519.062-.71.188a1.577 1.577 0 00-.469.504l-.432-.405a1.61 1.61 0 01.603-.639c.276-.18.624-.27 1.044-.27.564 0 1.002.138 1.314.414.312.276.468.66.468 1.152v2.556h.531v.63h-.405zm-2.07-.504c.18 0 .345-.02.495-.063.15-.042.28-.102.387-.18a.892.892 0 00.252-.27.645.645 0 00.09-.333v-.765h-.954c-.414 0-.717.06-.909.18a.584.584 0 00-.279.522v.19c0 .227.081.404.243.53.168.126.393.19.675.19zm4.817.612c-.474 0-.852-.08-1.134-.243a1.918 1.918 0 01-.693-.693l.54-.432c.12.228.285.408.495.54.216.126.48.19.792.19.378 0 .657-.07.837-.208a.634.634 0 00.279-.53v-.109c0-.234-.081-.41-.243-.53-.156-.127-.378-.19-.666-.19h-.99v-.603h.9c.288 0 .51-.057.666-.17a.566.566 0 00.234-.487v-.108a.542.542 0 00-.243-.468c-.156-.12-.42-.18-.792-.18-.306 0-.558.063-.756.19a1.35 1.35 0 00-.477.494l-.477-.405c.144-.27.354-.489.63-.657.282-.174.654-.26 1.116-.26.606 0 1.053.11 1.341.332.288.222.432.528.432.918 0 .288-.078.516-.234.684-.15.168-.369.285-.657.351v.036c.33.048.576.168.738.36.168.186.252.426.252.72 0 .45-.171.807-.513 1.071-.336.258-.795.387-1.377.387zm3.195-4.752h.72v1.935H89.4v-1.935h.72v4.644h-.72v-2.079h-2.322v2.08h-.72v-4.645zm8.666 4.644c-.27 0-.465-.072-.585-.216a1.094 1.094 0 01-.216-.54h-.045c-.102.288-.27.504-.504.648a1.566 1.566 0 01-.837.216c-.492 0-.876-.126-1.152-.378-.27-.252-.405-.594-.405-1.026 0-.438.159-.774.477-1.008.324-.234.825-.35 1.503-.35h.918v-.46c0-.33-.09-.582-.27-.756-.18-.174-.456-.26-.828-.26-.282 0-.52.062-.711.188a1.577 1.577 0 00-.468.504l-.432-.405a1.61 1.61 0 01.603-.639c.276-.18.624-.27 1.044-.27.564 0 1.002.138 1.314.414.312.276.468.66.468 1.152v2.556h.53v.63h-.404zm-2.07-.504c.18 0 .345-.02.495-.063.15-.042.279-.102.387-.18a.892.892 0 00.252-.27.645.645 0 00.09-.333v-.765h-.954c-.414 0-.717.06-.91.18a.584.584 0 00-.278.522v.19c0 .227.08.404.243.53.168.126.393.19.675.19zm5.998-1.629h-.045a1.807 1.807 0 01-.531.405c-.21.102-.486.153-.828.153-.474 0-.843-.117-1.107-.35-.264-.24-.396-.6-.396-1.08v-1.639h.72v1.575c0 .564.333.846.999.846.342 0 .624-.045.846-.135.228-.096.342-.24.342-.432v-1.854h.72v4.644h-.72v-2.133zm3.996 2.241c-.318 0-.606-.057-.864-.17a1.934 1.934 0 01-.657-.487 2.421 2.421 0 01-.423-.765 3.298 3.298 0 01-.144-1.008c0-.366.048-.699.144-.999.102-.3.243-.555.423-.765.186-.216.405-.38.657-.495.258-.114.546-.17.864-.17.312 0 .591.056.837.17.246.114.456.273.63.477.174.198.306.435.396.711.096.276.144.58.144.91v.341h-3.339v.216c0 .198.03.384.09.558.066.168.156.315.27.441.12.126.264.225.432.297.174.072.369.108.585.108.294 0 .549-.069.765-.207.222-.138.393-.336.513-.594l.513.37c-.15.317-.384.575-.702.773-.318.192-.696.288-1.134.288zm0-4.257c-.198 0-.378.036-.54.108a1.206 1.206 0 00-.423.288 1.514 1.514 0 00-.369 1.008v.063h2.565v-.099c0-.414-.114-.744-.342-.99-.222-.252-.519-.378-.891-.378zm3.194-.495h.72v1.935h2.322v-1.935h.72v4.644h-.72v-2.079h-2.322v2.08h-.72v-4.645zM21.94 91.62h.53c.187-.3.337-.675.45-1.125a6.33 6.33 0 00.172-1.548v-1.34h3.14v4.013h.775v1.89h-.657v-1.26h-3.753v1.26h-.657v-1.89zm3.573 0v-3.384h-1.737v.747c0 .618-.054 1.146-.162 1.584-.102.432-.225.783-.37 1.053h2.269zm1.85 0h.611c.078-.108.148-.237.207-.387.06-.15.111-.33.153-.54.043-.21.076-.459.1-.747.023-.288.035-.627.035-1.017v-1.323h3.141v4.644h-.72v-4.014h-1.736v.711c0 .45-.018.843-.055 1.18-.03.335-.075.623-.134.863a2.69 2.69 0 01-.198.594c-.078.15-.162.27-.252.36a.995.995 0 01-.378.243 1.712 1.712 0 01-.495.063h-.28v-.63zm5.367 0h.513l.297-.684a.887.887 0 01.243-.35.625.625 0 01.324-.154v-.036c-.414-.036-.726-.17-.936-.405-.21-.234-.315-.549-.315-.945 0-.45.135-.8.405-1.053.27-.258.642-.387 1.116-.387h2.052v4.644h-.72v-1.782h-1.206l-.486 1.143c-.108.252-.228.423-.36.513a.76.76 0 01-.432.126h-.495v-.63zm2.98-1.764v-1.62h-1.225c-.27 0-.48.051-.63.153-.15.102-.225.273-.225.513v.297c0 .24.075.411.225.513.15.096.36.144.63.144h1.224zm3.685 1.764h.612c.078-.108.147-.237.207-.387.06-.15.11-.33.153-.54.042-.21.075-.459.099-.747.024-.288.036-.627.036-1.017v-1.323h3.14v4.644h-.72v-4.014h-1.736v.711c0 .45-.018.843-.054 1.18-.03.335-.075.623-.135.863-.054.24-.12.438-.198.594-.078.15-.162.27-.252.36a.995.995 0 01-.378.243 1.712 1.712 0 01-.495.063h-.28v-.63zm5.782-4.014h.702v2.574l-.072 1.116h.036l.576-.99 1.854-2.7h.666v4.644h-.702v-2.574l.072-1.116h-.036l-.576.99-1.854 2.7h-.666v-4.644zm9.035 4.644h-3.744v-4.644h.72v4.014h2.187v-4.014h.72v4.014h.774v1.89h-.657v-1.26zm5.507.108c-.324 0-.615-.057-.873-.17a1.825 1.825 0 01-.657-.487 2.267 2.267 0 01-.405-.765c-.09-.3-.135-.636-.135-1.008s.045-.708.135-1.008c.096-.3.231-.555.405-.765.18-.21.399-.372.657-.486.258-.114.549-.17.873-.17.462 0 .831.101 1.107.305.282.198.492.46.63.783l-.603.306a1.093 1.093 0 00-.414-.558c-.192-.132-.432-.198-.72-.198-.216 0-.405.036-.567.108a1.041 1.041 0 00-.405.288c-.108.12-.189.267-.243.441a1.817 1.817 0 00-.081.558v.792c0 .408.108.744.324 1.008.222.258.546.387.972.387.582 0 1.002-.27 1.26-.81l.522.351c-.15.336-.375.603-.675.801-.294.198-.663.297-1.107.297zm3.833-4.122h-1.584v-.63h3.888v.63h-1.584v4.014h-.72v-4.014zm6.506 4.014c-.27 0-.465-.072-.585-.216a1.094 1.094 0 01-.216-.54h-.045c-.102.288-.27.504-.504.648a1.566 1.566 0 01-.837.216c-.492 0-.876-.126-1.152-.378-.27-.252-.405-.594-.405-1.026 0-.438.16-.774.477-1.008.324-.234.825-.35 1.503-.35h.918v-.46c0-.33-.09-.582-.27-.756-.18-.174-.456-.26-.828-.26-.282 0-.519.062-.71.188a1.577 1.577 0 00-.469.504l-.432-.405a1.61 1.61 0 01.603-.639c.276-.18.624-.27 1.044-.27.564 0 1.002.138 1.314.414.312.276.468.66.468 1.152v2.556h.531v.63h-.405zm-2.07-.504c.18 0 .345-.02.495-.063.15-.042.28-.102.387-.18a.892.892 0 00.252-.27.645.645 0 00.09-.333v-.765h-.954c-.414 0-.717.06-.909.18a.584.584 0 00-.279.522v.19c0 .227.081.404.243.53.168.126.393.19.675.19zm3.503-4.14h.72v.756h.036c.12-.294.294-.51.522-.648.234-.144.513-.216.837-.216.288 0 .549.057.783.171.234.114.432.276.594.486.168.21.294.465.378.765.09.3.135.636.135 1.008s-.045.708-.135 1.008c-.084.3-.21.555-.378.765a1.66 1.66 0 01-.594.486 1.764 1.764 0 01-.783.171c-.63 0-1.083-.288-1.359-.864h-.036v2.556h-.72v-6.444zm1.917 4.104c.408 0 .729-.126.963-.378.234-.258.351-.594.351-1.008v-.792c0-.414-.117-.747-.351-.999-.234-.258-.555-.387-.963-.387-.162 0-.318.024-.468.072-.144.042-.27.102-.378.18a.921.921 0 00-.261.288.711.711 0 00-.09.351v1.728c0 .15.03.285.09.405.066.114.153.213.261.297.108.078.234.138.378.18.15.042.306.063.468.063zm3.304-4.104h.72v4.014h1.746v-4.014h.72v4.014h1.746v-4.014h.72v4.644h-5.652v-4.644zm8.926 4.752c-.318 0-.606-.057-.864-.17a1.934 1.934 0 01-.657-.487 2.421 2.421 0 01-.423-.765 3.298 3.298 0 01-.144-1.008c0-.366.048-.699.144-.999.102-.3.243-.555.423-.765.186-.216.405-.38.657-.495.258-.114.546-.17.864-.17.312 0 .591.056.837.17.246.114.456.273.63.477.174.198.306.435.396.711.096.276.144.58.144.91v.341h-3.339v.216c0 .198.03.384.09.558.066.168.156.315.27.441.12.126.264.225.432.297.174.072.37.108.585.108.294 0 .55-.069.765-.207.222-.138.393-.336.513-.594l.513.37c-.15.317-.384.575-.702.773-.318.192-.696.288-1.134.288zm0-4.257c-.198 0-.378.036-.54.108a1.206 1.206 0 00-.423.288 1.514 1.514 0 00-.369 1.008v.063h2.565v-.099c0-.414-.114-.744-.342-.99-.222-.252-.519-.378-.89-.378zm5.348 4.149v-.666h1.755v-5.058h-.063l-1.584 1.476-.441-.477 1.665-1.557h1.179v5.616h1.62v.666h-4.131zm7.304.108c-.36 0-.675-.045-.945-.135a2.099 2.099 0 01-.684-.387 1.644 1.644 0 01-.414-.576 1.898 1.898 0 01-.135-.72c0-.432.117-.774.351-1.026.234-.252.54-.429.918-.53v-.073a1.676 1.676 0 01-.792-.549 1.509 1.509 0 01-.288-.927c0-.48.174-.86.522-1.143.348-.288.837-.432 1.467-.432.63 0 1.12.144 1.467.432.348.282.522.663.522 1.143 0 .36-.099.67-.297.927a1.62 1.62 0 01-.783.55v.071a1.9 1.9 0 01.918.531c.234.252.351.594.351 1.026 0 .258-.048.498-.144.72-.09.222-.228.414-.414.576-.18.162-.405.291-.675.387-.27.09-.585.135-.945.135zm0-.657c.438 0 .777-.096 1.017-.288.24-.198.36-.477.36-.837v-.189c0-.36-.12-.636-.36-.828-.24-.198-.579-.297-1.017-.297-.438 0-.777.1-1.017.297-.24.192-.36.468-.36.828v.19c0 .36.12.638.36.836.24.192.58.288 1.017.288zm0-3.069c.396 0 .696-.084.9-.252.204-.168.306-.414.306-.738v-.135c0-.324-.102-.57-.306-.738-.204-.168-.504-.252-.9-.252s-.696.084-.9.252c-.204.168-.306.414-.306.738v.135c0 .324.102.57.306.738.204.168.504.252.9.252zm5.055 3.06v-1.88h-1.755v-.613h1.755v-1.88h.684v1.88h1.755v.612h-1.755v1.881h-.684zM32.399 62.514v-4.902h7.643v-18.96h-.366l-5.773 7.535L30 43.15l6.79-8.913h9.35v23.376h6.017v4.902H32.399zM65.15 63c-1.68 0-3.184-.203-4.512-.608-1.301-.432-2.399-1.013-3.293-1.742a7.646 7.646 0 01-2.074-2.593c-.46-.999-.69-2.093-.69-3.281 0-1.81.5-3.282 1.503-4.416 1.003-1.161 2.358-1.971 4.066-2.43v-.325c-1.382-.513-2.52-1.296-3.415-2.35-.867-1.053-1.301-2.403-1.301-4.05 0-1.081.203-2.08.61-2.999a6.551 6.551 0 011.87-2.35c.84-.675 1.856-1.188 3.049-1.539 1.22-.378 2.615-.567 4.187-.567s2.955.19 4.147.567c1.22.351 2.236.864 3.05 1.54.84.648 1.463 1.431 1.87 2.35.433.918.65 1.917.65 2.997 0 1.648-.447 2.998-1.342 4.051-.867 1.054-1.992 1.837-3.374 2.35v.324c1.708.46 3.063 1.27 4.066 2.431 1.002 1.135 1.504 2.606 1.504 4.416 0 1.188-.244 2.282-.732 3.281a7.217 7.217 0 01-2.033 2.593c-.894.73-2.005 1.31-3.334 1.742-1.3.405-2.791.608-4.472.608zm0-4.659c1.356 0 2.386-.31 3.09-.932.732-.648 1.098-1.54 1.098-2.673v-.81c0-1.135-.366-2.013-1.098-2.634-.704-.648-1.734-.972-3.09-.972-1.355 0-2.398.324-3.13.972-.705.621-1.057 1.499-1.057 2.633v.81c0 1.135.352 2.026 1.057 2.674.732.622 1.775.932 3.13.932zm0-12.478c1.301 0 2.29-.297 2.968-.891.678-.621 1.017-1.459 1.017-2.512v-.648c0-1.053-.34-1.877-1.017-2.471-.677-.622-1.667-.932-2.968-.932-1.3 0-2.29.31-2.967.932-.678.594-1.017 1.418-1.017 2.471v.648c0 1.053.34 1.89 1.017 2.512.677.594 1.666.891 2.967.891zm21.775 14.099v-7.455h-6.87v-4.78h6.87v-7.454h5.204v7.454H99v4.78h-6.87v7.455h-5.204z" fill="#EA2924"/></svg>