<svg width="38" height="38" fill="none" xmlns="http://www.w3.org/2000/svg"><path d="M10.617 19.988a1.043 1.043 0 011.048-1.045 1.049 1.049 0 011.048 1.045 1.043 1.043 0 01-1.048 1.044 1.05 1.05 0 01-1.048-1.044zm1.048 3.134a1.05 1.05 0 00-1.048 1.044 1.043 1.043 0 001.048 1.045 1.05 1.05 0 001.048-1.045 1.043 1.043 0 00-1.048-1.044zm-1.048 5.223a1.043 1.043 0 011.048-1.045 1.05 1.05 0 011.048 1.045 1.043 1.043 0 01-1.048 1.045 1.049 1.049 0 01-1.048-1.045zm5.24-9.402a1.049 1.049 0 00-1.049 1.045 1.043 1.043 0 001.048 1.044h10.478a1.05 1.05 0 001.048-1.044 1.043 1.043 0 00-1.048-1.045H15.856zm-1.049 5.223a1.043 1.043 0 011.048-1.044h10.478a1.05 1.05 0 011.048 1.044 1.043 1.043 0 01-1.048 1.045H15.856a1.05 1.05 0 01-1.048-1.045zm1.048 3.134a1.05 1.05 0 00-1.048 1.045 1.043 1.043 0 001.048 1.045h10.478a1.049 1.049 0 001.048-1.045 1.043 1.043 0 00-1.048-1.045H15.856zM10.617 2.23a4.2 4.2 0 00-2.964 1.223 4.172 4.172 0 00-1.227 2.955V31.48c0 1.108.441 2.17 1.227 2.955a4.198 4.198 0 002.964 1.223h16.765a4.2 4.2 0 002.964-1.223 4.172 4.172 0 001.227-2.955V13.54c0-.83-.332-1.627-.922-2.215l-8.202-8.18a3.148 3.148 0 00-2.221-.916h-9.61zM8.521 6.407c0-.554.221-1.085.614-1.477a2.099 2.099 0 011.482-.612H19v7.312c0 .832.33 1.629.92 2.216a3.15 3.15 0 002.223.918h7.335V31.48c0 .554-.22 1.085-.614 1.477a2.1 2.1 0 01-1.482.612H10.617c-.556 0-1.089-.22-1.482-.612a2.086 2.086 0 01-.614-1.477V6.407zm20.523 6.268h-6.9a1.05 1.05 0 01-1.049-1.045V4.75l7.95 7.925z" fill="#000"/><mask id="mask0" style="mask-type:alpha" maskUnits="userSpaceOnUse" x="6" y="2" width="26" height="34"><path d="M10.617 19.988a1.043 1.043 0 011.048-1.045 1.049 1.049 0 011.048 1.045 1.043 1.043 0 01-1.048 1.044 1.05 1.05 0 01-1.048-1.044zm1.048 3.134a1.05 1.05 0 00-1.048 1.044 1.043 1.043 0 001.048 1.045 1.05 1.05 0 001.048-1.045 1.043 1.043 0 00-1.048-1.044zm-1.048 5.223a1.043 1.043 0 011.048-1.045 1.05 1.05 0 011.048 1.045 1.043 1.043 0 01-1.048 1.045 1.049 1.049 0 01-1.048-1.045zm5.24-9.402a1.049 1.049 0 00-1.049 1.045 1.043 1.043 0 001.048 1.044h10.478a1.05 1.05 0 001.048-1.044 1.043 1.043 0 00-1.048-1.045H15.856zm-1.049 5.223a1.043 1.043 0 011.048-1.044h10.478a1.05 1.05 0 011.048 1.044 1.043 1.043 0 01-1.048 1.045H15.856a1.05 1.05 0 01-1.048-1.045zm1.048 3.134a1.05 1.05 0 00-1.048 1.045 1.043 1.043 0 001.048 1.045h10.478a1.049 1.049 0 001.048-1.045 1.043 1.043 0 00-1.048-1.045H15.856zM10.617 2.23a4.2 4.2 0 00-2.964 1.223 4.172 4.172 0 00-1.227 2.955V31.48c0 1.108.441 2.17 1.227 2.955a4.198 4.198 0 002.964 1.223h16.765a4.2 4.2 0 002.964-1.223 4.172 4.172 0 001.227-2.955V13.54c0-.83-.332-1.627-.922-2.215l-8.202-8.18a3.148 3.148 0 00-2.221-.916h-9.61zM8.521 6.407c0-.554.221-1.085.614-1.477a2.099 2.099 0 011.482-.612H19v7.312c0 .832.33 1.629.92 2.216a3.15 3.15 0 002.223.918h7.335V31.48c0 .554-.22 1.085-.614 1.477a2.1 2.1 0 01-1.482.612H10.617c-.556 0-1.089-.22-1.482-.612a2.086 2.086 0 01-.614-1.477V6.407zm20.523 6.268h-6.9a1.05 1.05 0 01-1.049-1.045V4.75l7.95 7.925z" fill="#000"/></mask><g mask="url(#mask0)" fill="#1F99CF"><ellipse cx="11.735" cy="21.728" rx="1.676" ry="3.9"/><path d="M14 27h14v3H14z"/></g></svg>