<svg width="60" height="60" fill="none" xmlns="http://www.w3.org/2000/svg"><path d="M14.97 24.492h-3.72a1.758 1.758 0 00-1.758 1.764l.026 13.353a1.758 1.758 0 003.516 0v-4.055c.718-.003 1.486-.007 1.936-.007 3.088 0 5.601-2.48 5.601-5.527 0-3.048-2.513-5.528-5.601-5.528zm0 7.54c-.454 0-1.224.003-1.946.007a494.57 494.57 0 01-.007-2.02l-.004-2.011h1.957c1.13 0 2.085.921 2.085 2.012 0 1.09-.955 2.012-2.085 2.012zm14.952-7.54H26.25a1.758 1.758 0 00-1.758 1.761l.026 12.967a1.759 1.759 0 001.758 1.751h.007c.11 0 2.73-.01 3.777-.029 3.972-.069 6.854-3.522 6.854-8.21 0-4.929-2.81-8.24-6.992-8.24zm.076 12.935c-.455.008-1.238.015-1.97.02-.005-1.527-.014-7.853-.017-9.44h1.91c3.227 0 3.478 3.616 3.478 4.725 0 2.307-1.052 4.654-3.4 4.695zM48.5 27.872a1.758 1.758 0 000-3.516h-5.375c-.97 0-1.758.787-1.758 1.758v13.261a1.758 1.758 0 003.516 0v-4.998h3.19a1.758 1.758 0 000-3.516h-3.19v-2.989H48.5z" fill="#1F99CF"/><path d="M53.672 16.992h-1.29v-.501c0-2.26-.855-4.407-2.41-6.047l-7.301-7.702A8.826 8.826 0 0036.292 0H12.891a5.28 5.28 0 00-5.274 5.273v11.72H6.328a5.28 5.28 0 00-5.273 5.273v21.093a5.28 5.28 0 005.273 5.274h1.29v6.094A5.28 5.28 0 0012.89 60h34.218a5.28 5.28 0 005.274-5.273v-6.094h1.289a5.28 5.28 0 005.273-5.274V22.266a5.28 5.28 0 00-5.273-5.274zM11.132 5.273c0-.969.79-1.757 1.759-1.757h23.401c1.441 0 2.836.6 3.827 1.645l7.302 7.702a5.252 5.252 0 011.446 3.628v.501H11.133V5.273zm37.735 49.454a1.76 1.76 0 01-1.758 1.757H12.891a1.76 1.76 0 01-1.758-1.757v-6.094h37.734v6.094zm6.563-11.368a1.76 1.76 0 01-1.758 1.758H6.328A1.76 1.76 0 014.57 43.36V22.266c0-.97.789-1.758 1.758-1.758h47.344c.97 0 1.758.788 1.758 1.758v21.093z" fill="#000"/></svg>