<svg width="38" height="38" fill="none" xmlns="http://www.w3.org/2000/svg"><path d="M1.583 33.25V4.75A3.167 3.167 0 014.75 1.583h28.5a3.166 3.166 0 013.167 3.167v28.5a3.166 3.166 0 01-3.167 3.167H4.75a3.167 3.167 0 01-3.167-3.167z" stroke="#252525" stroke-width="1.5"/><path d="M23.75 11.084h6.333" stroke="#1F99CF" stroke-width="1.5" stroke-linecap="round" stroke-linejoin="round"/><path d="M23.75 24.542h6.333m-6.333 4.75h6.333M11.084 11.084v3.166m-3.167-3.166h3.167-3.167zm6.333 0h-3.166 3.166zm-3.166 0V7.917v3.167z" stroke="#252525" stroke-width="1.5" stroke-linecap="round" stroke-linejoin="round"/><path d="M11.084 26.917l2.24 2.238m-4.48 0l2.24-2.238-2.24 2.238zm4.48-4.477l-2.24 2.239 2.24-2.24zm-2.24 2.239l-2.24-2.24 2.24 2.24z" stroke="#1F99CF" stroke-width="1.5" stroke-linecap="round" stroke-linejoin="round"/></svg>