<svg width="38" height="38" fill="none" xmlns="http://www.w3.org/2000/svg"><path d="M37.947 21.088l-7.175-17.96a.747.747 0 00-.969-.416L.695 14.267a.73.73 0 00-.298.236.735.735 0 00-.398.646v19.336c0 .41.334.743.746.743h31.33a.745.745 0 00.746-.743v-10.56l4.708-1.87a.743.743 0 00.417-.967zM31.33 33.741H1.492V15.892H31.33v17.85zM12.446 14.41l12.49-4.962a5.943 5.943 0 004.277 1.838l1.246 3.124H12.446zm20.376 7.918V15.15a.745.745 0 00-.746-.744h-.012l-1.58-3.958a.615.615 0 00-.062-.094.737.737 0 00-.78-.572 4.467 4.467 0 01-3.91-1.68.74.74 0 00-.957-.166.842.842 0 00-.106.02L9.421 14.007a.736.736 0 00-.41.397h-4.63l25.28-10.035 6.623 16.58-3.463 1.378z" fill="#000"/><path d="M3.533 28.72a4.454 4.454 0 013.011 2.999c.094.315.385.53.715.53a.686.686 0 00.114-.017c.034.01.068.017.103.021h17.902a.638.638 0 00.091-.018.695.695 0 00.84-.51v-.003a4.453 4.453 0 013.012-3.003.734.734 0 00.512-.818.762.762 0 00.021-.11v-5.95a.665.665 0 00-.022-.11.733.733 0 00-.512-.818 4.449 4.449 0 01-3.01-3.003.737.737 0 00-.826-.51.712.712 0 00-.106-.02H7.476a.712.712 0 00-.111.022.737.737 0 00-.821.51 4.453 4.453 0 01-3.011 3.001.734.734 0 00-.512.819.75.75 0 00-.021.11v5.95a.707.707 0 00.02.102.736.736 0 00.513.826zm.959-6.576a5.91 5.91 0 003.287-3.277h17.296a5.912 5.912 0 003.287 3.276v5.346a5.917 5.917 0 00-3.286 3.277H7.779a5.917 5.917 0 00-3.287-3.277v-5.346z" fill="#1F99CF"/><path d="M17.74 25.922c1.33 0 2.26-.927 2.26-2.258 0-1.332-.93-2.229-2.26-2.229h-2.552a.187.187 0 00-.188.187v3.219h-.813a.187.187 0 00-.187.187v.707c0 .103.084.187.188.187H15v.498h-.813a.187.187 0 00-.187.187v.623c0 .103.084.187.188.187H15v.81c0 .103.084.187.188.187h.914a.187.187 0 00.188-.187v-.81h2.523A.187.187 0 0019 27.23v-.623a.187.187 0 00-.188-.187H16.29v-.498h1.45zm-1.45-3.416h1.23c.73 0 1.17.453 1.17 1.158 0 .714-.44 1.177-1.19 1.177h-1.21v-2.335zm-7.085 3.426c.618 0 1.12-.5 1.12-1.116 0-.616-.502-1.115-1.12-1.115-.618 0-1.119.5-1.119 1.115 0 .616.501 1.116 1.12 1.116zm0-1.488a.372.372 0 11.001.745.372.372 0 010-.745zm14.411 1.488c.618 0 1.12-.5 1.12-1.116 0-.616-.502-1.115-1.12-1.115-.617 0-1.118.5-1.118 1.115 0 .616.5 1.116 1.118 1.116zm0-1.488a.372.372 0 11.002.745.372.372 0 01-.002-.745z" fill="#1F99CF"/></svg>