<svg width="38" height="38" fill="none" xmlns="http://www.w3.org/2000/svg"><g clip-path="url(#clip0)"><path d="M20.645 22.983a.949.949 0 01-.68-.286l-5.826-5.955-6.428 4.3a.952.952 0 01-1.321-.245.946.946 0 01.262-1.328l7.085-4.74a.952.952 0 011.21.126l5.78 5.909 4.586-3.606a.952.952 0 011.06-.078l4.538 2.595c.455.26.613.839.351 1.293a.952.952 0 01-1.296.35l-3.98-2.277-4.753 3.738a.949.949 0 01-.588.204z" fill="#1F99CF"/><path d="M20.802 17.523a3.452 3.452 0 01-3.457-3.447 3.452 3.452 0 013.457-3.448 3.453 3.453 0 013.458 3.447 3.456 3.456 0 01-3.458 3.448zm0-5c-.86 0-1.557.695-1.557 1.552 0 .858.697 1.553 1.557 1.553s1.558-.695 1.558-1.553a1.557 1.557 0 00-1.558-1.552z" fill="#1F99CF"/><path d="M37.993 16.155l-.004-.029a.942.942 0 00-.022-.11L37.962 16a.913.913 0 00-.032-.092l-.012-.027a.934.934 0 00-.043-.086l-.008-.014a.932.932 0 00-.066-.097l-.01-.012a.863.863 0 00-.154-.152l-.023-.018c-.003-.003-.025-.005-.028-.007L31.73 11.31v-.949a2.922 2.922 0 00-2.899-2.945h-.914L19.588.866a.953.953 0 00-1.187.011l-8.08 6.54H9.198a2.922 2.922 0 00-2.928 2.917v.258L.357 15.539H.348a.952.952 0 00-.348.725v17.564c0 .88.337 1.727.943 2.367a.802.802 0 00.12.104c.647.617 1.51.959 2.406.952h31.062A3.437 3.437 0 0038 33.845V16.263l-.001-.017a.887.887 0 00-.006-.09zM1.9 33.828V17.932l4.37 2.664v.08h.085l7.6 4.673-12.008 8.854a1.573 1.573 0 01-.047-.375zm13.796-7.427l1.484.922a3.46 3.46 0 003.64.007l1.456-.91 12.156 8.937H3.53l12.167-8.956zm8.324-1.029l7.656-4.695h.054v-.061l4.37-2.658v15.87c0 .135-.019.269-.053.4L24.02 25.371zm11.278-9.17l-3.568 2.19v-4.748l3.568 2.558zM19.008 2.828l5.84 4.589H13.335l5.673-4.589zm-9.81 6.483h19.604a1.023 1.023 0 011.028 1.018v9.228l-10.025 6.164a1.514 1.514 0 01-1.617-.001L8.17 19.54v-9.178a1.023 1.023 0 01.995-1.051h.033zM6.27 18.37l-3.645-2.243 3.645-3.06v5.303z" fill="#252525"/></g><defs><clipPath id="clip0"><path fill="#fff" d="M0 0h38v37.885H0z"/></clipPath></defs></svg>