<svg width="90" height="90" viewBox="0 0 90 90" fill="none" xmlns="http://www.w3.org/2000/svg">
<g clip-path="url(#clip0)">
<path d="M77.908 15.7383C70.1121 7.98092 59.7423 3.70605 48.7243 3.70605C37.5027 3.70605 27.0032 8.1099 19.1703 16.1068C18.3185 16.9729 18.337 18.3733 19.2073 19.2393C20.0777 20.0869 21.485 20.0685 22.3553 19.2024C29.355 12.0715 38.7063 8.14676 48.7243 8.14676C69.0381 8.12833 85.5558 24.5644 85.5558 44.7779C85.5558 64.9914 69.0381 81.4275 48.7243 81.4275C28.4106 81.4275 11.8929 64.9914 11.8929 44.7779V44.3173L15.5594 47.9656C15.9853 48.3895 16.5593 48.6106 17.1334 48.6106C17.7074 48.6106 18.2629 48.3895 18.7074 47.9656C19.5777 47.0996 19.5777 45.6992 18.7074 44.8332L11.2633 37.4075C10.393 36.5414 8.98565 36.5414 8.11532 37.4075L0.652744 44.8332C-0.217581 45.6992 -0.217581 47.0996 0.652744 47.9656C1.52307 48.8317 2.9304 48.8317 3.80073 47.9656L7.46721 44.3173V44.7779C7.46721 55.7415 11.7633 66.0601 19.5592 73.8175C27.3551 81.5749 37.7249 85.8498 48.7429 85.8498C59.7608 85.8498 70.1307 81.5749 77.9266 73.8175C85.7225 66.0601 90 55.7415 90 44.7779C90 33.8144 85.7039 23.4957 77.908 15.7383Z" fill="black"/>
<path d="M60.5384 29.834L33.2436 56.9757C32.3732 57.8417 32.3732 59.2421 33.2436 60.1081C33.6695 60.5319 34.2435 60.753 34.8176 60.753C35.3916 60.753 35.9471 60.5319 36.3915 60.1081L63.6864 32.948C64.5568 32.082 64.5568 30.6816 63.6864 29.8155C62.8161 28.9679 61.4088 28.9679 60.5384 29.834Z" fill="#1F99CF"/>
<path d="M53.3911 48.1127C50.2987 51.1899 50.2987 56.2202 53.3911 59.2974C54.891 60.7899 56.8909 61.6191 59.0205 61.6191C61.15 61.6191 63.1499 60.7899 64.6498 59.2974C67.7422 56.2202 67.7422 51.1899 64.6498 48.1127C63.1499 46.6202 61.15 45.791 59.0205 45.791C56.8909 45.791 54.9095 46.6202 53.3911 48.1127ZM61.5018 56.1833C60.8352 56.8467 59.9648 57.1968 59.0205 57.1968C58.0761 57.1968 57.2057 56.8283 56.5391 56.1833C55.1688 54.8198 55.1688 52.6087 56.5391 51.2452C57.2057 50.5818 58.0761 50.2317 59.0205 50.2317C59.9648 50.2317 60.8352 50.6002 61.5018 51.2452C62.8721 52.6087 62.8721 54.8198 61.5018 56.1833Z" fill="#1F99CF"/>
<path d="M38.5026 27.8633C36.3731 27.8633 34.3732 28.6925 32.8733 30.185C31.3733 31.6775 30.54 33.6675 30.54 35.7865C30.54 37.9055 31.3733 39.8956 32.8733 41.3881C34.3732 42.8806 36.3731 43.7098 38.5026 43.7098C40.6321 43.7098 42.632 42.8806 44.1319 41.3881C45.6319 39.8956 46.4651 37.9055 46.4651 35.7865C46.4651 33.6675 45.6319 31.6775 44.1319 30.185C42.6135 28.6925 40.6321 27.8633 38.5026 27.8633ZM40.9839 38.2556C40.3173 38.919 39.447 39.2691 38.5026 39.2691C37.5582 39.2691 36.6879 38.9005 36.0212 38.2556C35.3546 37.5923 35.0028 36.7263 35.0028 35.7865C35.0028 34.8468 35.3731 33.9808 36.0212 33.3174C36.6879 32.6541 37.5582 32.304 38.5026 32.304C39.447 32.304 40.3173 32.6725 40.9839 33.3174C41.6506 33.9808 42.0024 34.8468 42.0024 35.7865C42.0024 36.7078 41.6506 37.5923 40.9839 38.2556Z" fill="#1F99CF"/>
</g>
<defs>
<clipPath id="clip0">
<rect width="90" height="89.5557" fill="white"/>
</clipPath>
</defs>
</svg>
