<svg width="90" height="90" viewBox="0 0 90 90" fill="none" xmlns="http://www.w3.org/2000/svg">
<g clip-path="url(#clip0)">
<path d="M33.4266 89.5554H7.29767C5.69435 89.5554 4.39453 88.262 4.39453 86.6666C4.39453 85.0712 5.69435 83.7778 7.29767 83.7778H33.4266C35.0299 83.7778 36.3297 85.0712 36.3297 86.6666C36.3297 88.262 35.0299 89.5554 33.4266 89.5554Z" fill="#1F99CF"/>
<path d="M27.6203 80.8891H7.29767C5.69435 80.8891 4.39453 79.5951 4.39453 77.9996C4.39453 76.4042 5.69435 75.1108 7.29767 75.1108H27.6203C29.2236 75.1108 30.5235 76.4042 30.5235 77.9996C30.5235 79.5951 29.2236 80.8891 27.6203 80.8891Z" fill="#1F99CF"/>
<path d="M16.0078 72.2219H7.29767C5.69435 72.2219 4.39453 70.9285 4.39453 69.3331C4.39453 67.7377 5.69435 66.4443 7.29767 66.4443H16.0078C17.6111 66.4443 18.9109 67.7377 18.9109 69.3331C18.9109 70.9285 17.6111 72.2219 16.0078 72.2219Z" fill="#1F99CF"/>
<path d="M47.943 8.81263V5.77761H50.8461C52.4494 5.77761 53.7492 4.48421 53.7492 2.8888C53.7492 1.2934 52.4494 0 50.8461 0H39.2336C37.6302 0 36.3297 1.2934 36.3297 2.8888C36.3297 4.48421 37.6302 5.77761 39.2336 5.77761H42.1367V8.81263C21.08 10.3049 4.39453 27.7846 4.39453 49.111C4.39453 50.7064 5.69435 51.9998 7.29767 51.9998C8.90099 51.9998 10.2008 50.7064 10.2008 49.111C10.2008 29.9963 25.8295 14.4447 45.0398 14.4447C64.2494 14.4447 79.8782 29.9963 79.8782 49.111C79.8782 68.2265 64.2494 83.7781 45.0398 83.7781C43.4365 83.7781 42.1367 85.0715 42.1367 86.6669C42.1367 88.2623 43.4365 89.5557 45.0398 89.5557C67.4519 89.5557 85.6851 71.4125 85.6851 49.111C85.6851 27.7846 68.9996 10.3049 47.943 8.81263Z" fill="black"/>
<path d="M45.622 54.3067C47.1786 54.2274 48.6377 53.4943 49.6224 52.2952L66.2605 32.0605C67.2053 30.912 67.1209 29.238 66.0669 28.1879C65.0087 27.1343 63.3292 27.0537 62.1749 27.9952L41.8413 44.5498C40.6349 45.5316 39.8981 46.9828 39.8185 48.5318C39.7402 50.0821 40.3273 51.601 41.43 52.7003C41.4314 52.7017 41.4314 52.7017 41.4328 52.7031C42.4703 53.7355 43.8841 54.3142 45.3439 54.3142C45.4366 54.3135 45.5286 54.3108 45.622 54.3067Z" fill="#1F99CF"/>
</g>
<defs>
<clipPath id="clip0">
<rect width="90" height="89.5557" fill="white"/>
</clipPath>
</defs>
</svg>
