<svg width="90" height="90" viewBox="0 0 90 90" fill="none" xmlns="http://www.w3.org/2000/svg">
<g clip-path="url(#clip0)">
<path d="M29.0786 34.7505H13.4023C11.9466 34.7505 10.7666 35.9247 10.7666 37.3731C10.7666 38.8216 11.9466 39.9958 13.4023 39.9958H29.0786C30.5343 39.9958 31.7143 38.8216 31.7143 37.3731C31.7143 35.9247 30.5343 34.7505 29.0786 34.7505Z" fill="#1F99CF"/>
<path d="M23.9328 47.7881H13.4023C11.9466 47.7881 10.7666 48.9623 10.7666 50.4107C10.7666 51.8592 11.9466 53.0334 13.4023 53.0334H23.9328C25.3884 53.0334 26.5685 51.8592 26.5685 50.4107C26.5685 48.9623 25.3884 47.7881 23.9328 47.7881Z" fill="#1F99CF"/>
<path d="M68.7176 39.0535V5.26474C68.7176 2.37448 66.3543 0.0229492 63.4498 0.0229492C61.9174 0.0229492 11.3903 0.0229492 5.26781 0.0229492C2.36338 0.0229492 0 2.37465 0 5.26474V63.1593C0 66.0513 2.36338 68.4029 5.26781 68.4029H39.2787C41.3327 80.3832 51.8404 89.5329 64.4565 89.5329C78.5417 89.5329 90 78.1314 90 64.1158C90 51.5462 80.7822 41.0782 68.7176 39.0535ZM25.6892 5.26824H43.0284V14.7466L35.341 11.6746C34.7295 11.4299 34.0265 11.4159 33.3765 11.6746L25.689 14.7466V5.26824H25.6892ZM38.9345 63.1576L5.2715 63.1593L5.26799 5.26824L20.4179 5.26649V18.6263C20.4179 20.4855 22.311 21.7475 24.0358 21.0603L34.3589 16.9339L44.682 21.0603C46.4316 21.7527 48.2999 20.4645 48.2999 18.6263V5.26649L63.4463 5.26474L63.4498 38.7212C50.1502 39.2353 39.4281 49.9183 38.9345 63.1576ZM64.4567 84.2876C54.7573 84.2876 46.6272 77.4739 44.6486 68.4029C41.5144 54.1618 54.318 41.2984 68.7178 44.395C77.8567 46.3464 84.7287 54.4469 84.7287 64.1158C84.7287 75.2393 75.6338 84.2876 64.4567 84.2876Z" fill="black"/>
<path d="M70.9068 57.6133C68.0757 59.743 70.0186 58.2809 61.2515 64.8799C59.554 62.7248 60.18 63.5192 58.4928 61.3778C56.8937 59.3514 53.6311 60.6069 53.7871 63.1577C53.8499 64.2348 53.9998 64.1759 58.7001 70.1462C59.5874 71.2707 61.2155 71.4813 62.3654 70.62L74.0855 61.7974C75.2469 60.9232 75.4754 59.278 74.5986 58.1239C73.7198 56.9682 72.0665 56.7408 70.9068 57.6133Z" fill="#1F99CF"/>
</g>
<defs>
<clipPath id="clip0">
<rect width="90" height="89.5554" fill="white"/>
</clipPath>
</defs>
</svg>
