<svg width="90" height="90" viewBox="0 0 90 90" fill="none" xmlns="http://www.w3.org/2000/svg">
<g clip-path="url(#clip0)">
<path d="M87.1863 38.2593L86.8682 11.1617C86.8525 9.83608 85.8958 8.70159 84.5883 8.44639C83.3343 8.20187 66.171 9.43973 46.1776 0.257647C45.4297 -0.0858825 44.5684 -0.0858825 43.8204 0.257647C31.8968 5.73366 19.3067 8.39409 5.62402 8.39409C4.07082 8.39409 2.81152 9.64717 2.81152 11.1927V38.292C2.81152 62.8845 20.0789 84.3053 44.4096 89.4936C44.7976 89.5763 45.1998 89.5765 45.5882 89.4936C70.3504 84.2135 87.3744 62.2053 87.1863 38.2593ZM44.999 83.8909C23.7768 79.0778 8.43652 59.9979 8.43652 38.292V13.973C20.9706 13.7232 33.5463 10.938 44.999 5.87097C56.3654 10.8997 68.8358 13.681 81.2757 13.9668L81.5615 38.308C81.554 60.0074 66.216 79.0791 44.999 83.8909Z" fill="black"/>
<path d="M59.0615 36.3821H56.249V32.1842C56.249 26.0115 51.2023 20.9897 44.999 20.9897C38.7957 20.9897 33.749 26.0115 33.749 32.1842V36.3821H30.9365C29.3833 36.3821 28.124 37.6352 28.124 39.1807V61.5697C28.124 63.1152 29.3833 64.3683 30.9365 64.3683H59.0615C60.6147 64.3683 61.874 63.1152 61.874 61.5697V39.1807C61.874 37.6352 60.6149 36.3821 59.0615 36.3821ZM39.374 32.1842C39.374 29.0979 41.8974 26.587 44.999 26.587C48.1007 26.587 50.624 29.0979 50.624 32.1842V36.3821H39.374V32.1842ZM56.249 58.771H33.749V41.9794H56.249V58.771Z" fill="#1F99CF"/>
<path d="M44.999 46.1772C43.4458 46.1772 42.1865 47.4303 42.1865 48.9759V51.7745C42.1865 53.32 43.4458 54.5731 44.999 54.5731C46.5522 54.5731 47.8115 53.32 47.8115 51.7745V48.9759C47.8115 47.4303 46.5524 46.1772 44.999 46.1772Z" fill="#1F99CF"/>
</g>
<defs>
<clipPath id="clip0">
<rect width="90" height="89.5557" fill="white"/>
</clipPath>
</defs>
</svg>
