<svg width="128" height="128" viewBox="0 0 128 128" fill="none" xmlns="http://www.w3.org/2000/svg">
<path d="M127.5 63.75C127.5 98.9582 98.9582 127.5 63.75 127.5C28.5418 127.5 0 98.9582 0 63.75C0 28.5418 28.5418 0 63.75 0C98.9582 0 127.5 28.5418 127.5 63.75ZM5.15072 63.75C5.15072 96.1135 31.3865 122.349 63.75 122.349C96.1135 122.349 122.349 96.1135 122.349 63.75C122.349 31.3865 96.1135 5.15072 63.75 5.15072C31.3865 5.15072 5.15072 31.3865 5.15072 63.75Z" fill="#1F99CF"/>
<path d="M20.634 80.3584C19.836 80.3584 19.215 80.0884 18.771 79.5484C18.327 79.0024 18.105 78.2014 18.105 77.1454C18.105 76.0894 18.327 75.2794 18.771 74.7154C19.215 74.1454 19.836 73.8604 20.634 73.8604C21.162 73.8604 21.603 73.9804 21.957 74.2204C22.317 74.4604 22.596 74.7994 22.794 75.2374L22.182 75.6064C22.056 75.2824 21.864 75.0244 21.606 74.8324C21.348 74.6344 21.024 74.5354 20.634 74.5354C20.364 74.5354 20.121 74.5864 19.905 74.6884C19.695 74.7904 19.515 74.9374 19.365 75.1294C19.221 75.3154 19.11 75.5404 19.032 75.8044C18.954 76.0624 18.915 76.3534 18.915 76.6774V77.6134C18.915 78.2614 19.065 78.7684 19.365 79.1344C19.665 79.5004 20.088 79.6834 20.634 79.6834C21.036 79.6834 21.372 79.5814 21.642 79.3774C21.912 79.1674 22.11 78.8914 22.236 78.5494L22.839 78.9274C22.641 79.3714 22.356 79.7224 21.984 79.9804C21.612 80.2324 21.162 80.3584 20.634 80.3584Z" fill="#EA2924"/>
<path d="M25.6838 80.3584C25.3658 80.3584 25.0778 80.3014 24.8198 80.1874C24.5678 80.0734 24.3488 79.9114 24.1628 79.7014C23.9828 79.4854 23.8418 79.2304 23.7398 78.9364C23.6438 78.6364 23.5958 78.3004 23.5958 77.9284C23.5958 77.5624 23.6438 77.2294 23.7398 76.9294C23.8418 76.6294 23.9828 76.3744 24.1628 76.1644C24.3488 75.9484 24.5678 75.7834 24.8198 75.6694C25.0778 75.5554 25.3658 75.4984 25.6838 75.4984C25.9958 75.4984 26.2748 75.5554 26.5208 75.6694C26.7668 75.7834 26.9768 75.9424 27.1508 76.1464C27.3248 76.3444 27.4568 76.5814 27.5468 76.8574C27.6428 77.1334 27.6908 77.4364 27.6908 77.7664V78.1084H24.3518V78.3244C24.3518 78.5224 24.3818 78.7084 24.4418 78.8824C24.5078 79.0504 24.5978 79.1974 24.7118 79.3234C24.8318 79.4494 24.9758 79.5484 25.1438 79.6204C25.3178 79.6924 25.5128 79.7284 25.7288 79.7284C26.0228 79.7284 26.2778 79.6594 26.4938 79.5214C26.7158 79.3834 26.8868 79.1854 27.0068 78.9274L27.5198 79.2964C27.3698 79.6144 27.1358 79.8724 26.8178 80.0704C26.4998 80.2624 26.1218 80.3584 25.6838 80.3584ZM25.6838 76.1014C25.4858 76.1014 25.3058 76.1374 25.1438 76.2094C24.9818 76.2754 24.8408 76.3714 24.7208 76.4974C24.6068 76.6234 24.5168 76.7734 24.4508 76.9474C24.3848 77.1154 24.3518 77.3014 24.3518 77.5054V77.5684H26.9168V77.4694C26.9168 77.0554 26.8028 76.7254 26.5748 76.4794C26.3528 76.2274 26.0558 76.1014 25.6838 76.1014Z" fill="#EA2924"/>
<path d="M28.8773 75.6064H29.5973V76.3624H29.6333C29.7533 76.0684 29.9273 75.8524 30.1553 75.7144C30.3893 75.5704 30.6683 75.4984 30.9923 75.4984C31.2803 75.4984 31.5413 75.5554 31.7753 75.6694C32.0093 75.7834 32.2073 75.9454 32.3693 76.1554C32.5373 76.3654 32.6633 76.6204 32.7473 76.9204C32.8373 77.2204 32.8823 77.5564 32.8823 77.9284C32.8823 78.3004 32.8373 78.6364 32.7473 78.9364C32.6633 79.2364 32.5373 79.4914 32.3693 79.7014C32.2073 79.9114 32.0093 80.0734 31.7753 80.1874C31.5413 80.3014 31.2803 80.3584 30.9923 80.3584C30.3623 80.3584 29.9093 80.0704 29.6333 79.4944H29.5973V82.0504H28.8773V75.6064ZM30.7943 79.7104C31.2023 79.7104 31.5233 79.5844 31.7573 79.3324C31.9913 79.0744 32.1083 78.7384 32.1083 78.3244V77.5324C32.1083 77.1184 31.9913 76.7854 31.7573 76.5334C31.5233 76.2754 31.2023 76.1464 30.7943 76.1464C30.6323 76.1464 30.4763 76.1704 30.3263 76.2184C30.1823 76.2604 30.0563 76.3204 29.9483 76.3984C29.8403 76.4764 29.7533 76.5724 29.6873 76.6864C29.6273 76.7944 29.5973 76.9114 29.5973 77.0374V78.7654C29.5973 78.9154 29.6273 79.0504 29.6873 79.1704C29.7533 79.2844 29.8403 79.3834 29.9483 79.4674C30.0563 79.5454 30.1823 79.6054 30.3263 79.6474C30.4763 79.6894 30.6323 79.7104 30.7943 79.7104Z" fill="#EA2924"/>
<path d="M34.098 75.6064H36.438C36.816 75.6064 37.113 75.7144 37.329 75.9304C37.545 76.1404 37.653 76.4254 37.653 76.7854C37.653 77.3674 37.35 77.6944 36.744 77.7664V77.8024C37.104 77.8324 37.371 77.9464 37.545 78.1444C37.725 78.3364 37.815 78.5764 37.815 78.8644C37.815 79.0504 37.785 79.2274 37.725 79.3954C37.671 79.5634 37.59 79.7104 37.482 79.8364C37.374 79.9624 37.242 80.0644 37.086 80.1424C36.93 80.2144 36.753 80.2504 36.555 80.2504H34.098V75.6064ZM36.339 79.6564C36.555 79.6564 36.726 79.5994 36.852 79.4854C36.978 79.3714 37.041 79.2094 37.041 78.9994V78.7924C37.041 78.5824 36.978 78.4204 36.852 78.3064C36.726 78.1924 36.555 78.1354 36.339 78.1354H34.818V79.6564H36.339ZM36.249 77.5504C36.447 77.5504 36.6 77.5024 36.708 77.4064C36.822 77.3044 36.879 77.1604 36.879 76.9744V76.7764C36.879 76.5904 36.822 76.4494 36.708 76.3534C36.6 76.2514 36.447 76.2004 36.249 76.2004H34.818V77.5504H36.249Z" fill="#EA2924"/>
<path d="M39.1165 75.6064H39.8185V78.1804L39.7465 79.2964H39.7825L40.3585 78.3064L42.2125 75.6064H42.8785V80.2504H42.1765V77.6764L42.2485 76.5604H42.2125L41.6365 77.5504L39.7825 80.2504H39.1165V75.6064Z" fill="#EA2924"/>
<path d="M46.1355 80.3584C45.8115 80.3584 45.5206 80.3014 45.2626 80.1874C45.0046 80.0734 44.7856 79.9114 44.6056 79.7014C44.4316 79.4914 44.2966 79.2364 44.2006 78.9364C44.1106 78.6364 44.0656 78.3004 44.0656 77.9284C44.0656 77.5564 44.1106 77.2204 44.2006 76.9204C44.2966 76.6204 44.4316 76.3654 44.6056 76.1554C44.7856 75.9454 45.0046 75.7834 45.2626 75.6694C45.5206 75.5554 45.8115 75.4984 46.1355 75.4984C46.5975 75.4984 46.9666 75.6004 47.2426 75.8044C47.5246 76.0024 47.7346 76.2634 47.8726 76.5874L47.2696 76.8934C47.1856 76.6534 47.0476 76.4674 46.8556 76.3354C46.6636 76.2034 46.4235 76.1374 46.1355 76.1374C45.9195 76.1374 45.7306 76.1734 45.5686 76.2454C45.4066 76.3114 45.2716 76.4074 45.1636 76.5334C45.0556 76.6534 44.9746 76.8004 44.9206 76.9744C44.8666 77.1424 44.8396 77.3284 44.8396 77.5324V78.3244C44.8396 78.7324 44.9476 79.0684 45.1636 79.3324C45.3856 79.5904 45.7095 79.7194 46.1355 79.7194C46.7175 79.7194 47.1375 79.4494 47.3955 78.9094L47.9176 79.2604C47.7676 79.5964 47.5426 79.8634 47.2426 80.0614C46.9486 80.2594 46.5795 80.3584 46.1355 80.3584Z" fill="#EA2924"/>
<path d="M51.0609 75.6064H54.6879V80.2504H53.9679V76.2364H51.7809V80.2504H51.0609V75.6064Z" fill="#EA2924"/>
<path d="M56.2201 75.6064H56.9401V76.3624H56.9761C57.0961 76.0684 57.2701 75.8524 57.4981 75.7144C57.7321 75.5704 58.0111 75.4984 58.3351 75.4984C58.6231 75.4984 58.8841 75.5554 59.1181 75.6694C59.3521 75.7834 59.5501 75.9454 59.7121 76.1554C59.8801 76.3654 60.0061 76.6204 60.0901 76.9204C60.1801 77.2204 60.2251 77.5564 60.2251 77.9284C60.2251 78.3004 60.1801 78.6364 60.0901 78.9364C60.0061 79.2364 59.8801 79.4914 59.7121 79.7014C59.5501 79.9114 59.3521 80.0734 59.1181 80.1874C58.8841 80.3014 58.6231 80.3584 58.3351 80.3584C57.7051 80.3584 57.2521 80.0704 56.9761 79.4944H56.9401V82.0504H56.2201V75.6064ZM58.1371 79.7104C58.5451 79.7104 58.8661 79.5844 59.1001 79.3324C59.3341 79.0744 59.4511 78.7384 59.4511 78.3244V77.5324C59.4511 77.1184 59.3341 76.7854 59.1001 76.5334C58.8661 76.2754 58.5451 76.1464 58.1371 76.1464C57.9751 76.1464 57.8191 76.1704 57.6691 76.2184C57.5251 76.2604 57.399 76.3204 57.291 76.3984C57.183 76.4764 57.0961 76.5724 57.0301 76.6864C56.9701 76.7944 56.9401 76.9114 56.9401 77.0374V78.7654C56.9401 78.9154 56.9701 79.0504 57.0301 79.1704C57.0961 79.2844 57.183 79.3834 57.291 79.4674C57.399 79.5454 57.5251 79.6054 57.6691 79.6474C57.8191 79.6894 57.9751 79.7104 58.1371 79.7104Z" fill="#EA2924"/>
<path d="M63.1868 80.3584C62.8688 80.3584 62.5808 80.3014 62.3228 80.1874C62.0708 80.0734 61.8518 79.9114 61.6658 79.7014C61.4858 79.4854 61.3448 79.2304 61.2428 78.9364C61.1468 78.6364 61.0988 78.3004 61.0988 77.9284C61.0988 77.5624 61.1468 77.2294 61.2428 76.9294C61.3448 76.6294 61.4858 76.3744 61.6658 76.1644C61.8518 75.9484 62.0708 75.7834 62.3228 75.6694C62.5808 75.5554 62.8688 75.4984 63.1868 75.4984C63.4988 75.4984 63.7778 75.5554 64.0238 75.6694C64.2698 75.7834 64.4798 75.9424 64.6538 76.1464C64.8278 76.3444 64.9598 76.5814 65.0498 76.8574C65.1458 77.1334 65.1938 77.4364 65.1938 77.7664V78.1084H61.8548V78.3244C61.8548 78.5224 61.8848 78.7084 61.9448 78.8824C62.0108 79.0504 62.1008 79.1974 62.2148 79.3234C62.3348 79.4494 62.4788 79.5484 62.6468 79.6204C62.8208 79.6924 63.0158 79.7284 63.2318 79.7284C63.5258 79.7284 63.7808 79.6594 63.9968 79.5214C64.2188 79.3834 64.3898 79.1854 64.5098 78.9274L65.0228 79.2964C64.8728 79.6144 64.6388 79.8724 64.3208 80.0704C64.0028 80.2624 63.6248 80.3584 63.1868 80.3584ZM63.1868 76.1014C62.9888 76.1014 62.8088 76.1374 62.6468 76.2094C62.4848 76.2754 62.3438 76.3714 62.2238 76.4974C62.1098 76.6234 62.0198 76.7734 61.9538 76.9474C61.8878 77.1154 61.8548 77.3014 61.8548 77.5054V77.5684H64.4198V77.4694C64.4198 77.0554 64.3058 76.7254 64.0778 76.4794C63.8558 76.2274 63.5588 76.1014 63.1868 76.1014Z" fill="#EA2924"/>
<path d="M65.6872 79.6204H66.2182C66.4042 79.3204 66.5542 78.9454 66.6682 78.4954C66.7822 78.0454 66.8392 77.5294 66.8392 76.9474V75.6064H69.9802V79.6204H70.7542V81.5104H70.0972V80.2504H66.3442V81.5104H65.6872V79.6204ZM69.2602 79.6204V76.2364H67.5232V76.9834C67.5232 77.6014 67.4692 78.1294 67.3612 78.5674C67.2592 78.9994 67.1362 79.3504 66.9922 79.6204H69.2602Z" fill="#EA2924"/>
<path d="M71.7503 75.6064H72.4703V77.5414H74.7923V75.6064H75.5123V80.2504H74.7923V78.1714H72.4703V80.2504H71.7503V75.6064Z" fill="#EA2924"/>
<path d="M80.4163 80.2504C80.1463 80.2504 79.9513 80.1784 79.8313 80.0344C79.7173 79.8904 79.6453 79.7104 79.6153 79.4944H79.5703C79.4683 79.7824 79.3003 79.9984 79.0663 80.1424C78.8323 80.2864 78.5533 80.3584 78.2293 80.3584C77.7373 80.3584 77.3533 80.2324 77.0773 79.9804C76.8073 79.7284 76.6723 79.3864 76.6723 78.9544C76.6723 78.5164 76.8313 78.1804 77.1493 77.9464C77.4733 77.7124 77.9743 77.5954 78.6523 77.5954H79.5703V77.1364C79.5703 76.8064 79.4803 76.5544 79.3003 76.3804C79.1203 76.2064 78.8443 76.1194 78.4723 76.1194C78.1903 76.1194 77.9533 76.1824 77.7613 76.3084C77.5753 76.4344 77.4193 76.6024 77.2933 76.8124L76.8613 76.4074C76.9873 76.1554 77.1883 75.9424 77.4643 75.7684C77.7403 75.5884 78.0883 75.4984 78.5083 75.4984C79.0723 75.4984 79.5103 75.6364 79.8223 75.9124C80.1343 76.1884 80.2903 76.5724 80.2903 77.0644V79.6204H80.8213V80.2504H80.4163ZM78.3463 79.7464C78.5263 79.7464 78.6913 79.7254 78.8413 79.6834C78.9913 79.6414 79.1203 79.5814 79.2283 79.5034C79.3363 79.4254 79.4203 79.3354 79.4803 79.2334C79.5403 79.1314 79.5703 79.0204 79.5703 78.9004V78.1354H78.6163C78.2023 78.1354 77.8993 78.1954 77.7073 78.3154C77.5213 78.4354 77.4283 78.6094 77.4283 78.8374V79.0264C77.4283 79.2544 77.5093 79.4314 77.6713 79.5574C77.8393 79.6834 78.0643 79.7464 78.3463 79.7464Z" fill="#EA2924"/>
<path d="M83.163 80.3584C82.689 80.3584 82.311 80.2774 82.029 80.1154C81.747 79.9534 81.516 79.7224 81.336 79.4224L81.876 78.9904C81.996 79.2184 82.161 79.3984 82.371 79.5304C82.587 79.6564 82.851 79.7194 83.163 79.7194C83.541 79.7194 83.82 79.6504 84 79.5124C84.186 79.3744 84.279 79.1974 84.279 78.9814V78.8734C84.279 78.6394 84.198 78.4624 84.036 78.3424C83.88 78.2164 83.658 78.1534 83.37 78.1534H82.38V77.5504H83.28C83.568 77.5504 83.79 77.4934 83.946 77.3794C84.102 77.2654 84.18 77.1034 84.18 76.8934V76.7854C84.18 76.5874 84.099 76.4314 83.937 76.3174C83.781 76.1974 83.517 76.1374 83.145 76.1374C82.839 76.1374 82.587 76.2004 82.389 76.3264C82.191 76.4464 82.032 76.6114 81.912 76.8214L81.435 76.4164C81.579 76.1464 81.789 75.9274 82.065 75.7594C82.347 75.5854 82.719 75.4984 83.181 75.4984C83.787 75.4984 84.234 75.6094 84.522 75.8314C84.81 76.0534 84.954 76.3594 84.954 76.7494C84.954 77.0374 84.876 77.2654 84.72 77.4334C84.57 77.6014 84.351 77.7184 84.063 77.7844V77.8204C84.393 77.8684 84.639 77.9884 84.801 78.1804C84.969 78.3664 85.053 78.6064 85.053 78.9004C85.053 79.3504 84.882 79.7074 84.54 79.9714C84.204 80.2294 83.745 80.3584 83.163 80.3584Z" fill="#EA2924"/>
<path d="M86.3577 75.6064H87.0777V77.5414H89.3997V75.6064H90.1197V80.2504H89.3997V78.1714H87.0777V80.2504H86.3577V75.6064Z" fill="#EA2924"/>
<path d="M95.0238 80.2504C94.7538 80.2504 94.5588 80.1784 94.4388 80.0344C94.3248 79.8904 94.2528 79.7104 94.2228 79.4944H94.1778C94.0758 79.7824 93.9078 79.9984 93.6738 80.1424C93.4398 80.2864 93.1608 80.3584 92.8368 80.3584C92.3448 80.3584 91.9608 80.2324 91.6848 79.9804C91.4148 79.7284 91.2798 79.3864 91.2798 78.9544C91.2798 78.5164 91.4388 78.1804 91.7568 77.9464C92.0808 77.7124 92.5818 77.5954 93.2598 77.5954H94.1778V77.1364C94.1778 76.8064 94.0878 76.5544 93.9078 76.3804C93.7278 76.2064 93.4518 76.1194 93.0798 76.1194C92.7978 76.1194 92.5608 76.1824 92.3688 76.3084C92.1828 76.4344 92.0268 76.6024 91.9008 76.8124L91.4688 76.4074C91.5948 76.1554 91.7958 75.9424 92.0718 75.7684C92.3478 75.5884 92.6958 75.4984 93.1158 75.4984C93.6798 75.4984 94.1178 75.6364 94.4298 75.9124C94.7418 76.1884 94.8978 76.5724 94.8978 77.0644V79.6204H95.4288V80.2504H95.0238ZM92.9538 79.7464C93.1338 79.7464 93.2988 79.7254 93.4488 79.6834C93.5988 79.6414 93.7278 79.5814 93.8358 79.5034C93.9438 79.4254 94.0278 79.3354 94.0878 79.2334C94.1478 79.1314 94.1778 79.0204 94.1778 78.9004V78.1354H93.2238C92.8098 78.1354 92.5068 78.1954 92.3148 78.3154C92.1288 78.4354 92.0358 78.6094 92.0358 78.8374V79.0264C92.0358 79.2544 92.1168 79.4314 92.2788 79.5574C92.4468 79.6834 92.6718 79.7464 92.9538 79.7464Z" fill="#EA2924"/>
<path d="M98.9517 78.1174H98.9067C98.7627 78.2794 98.5857 78.4144 98.3757 78.5224C98.1657 78.6244 97.8897 78.6754 97.5477 78.6754C97.0737 78.6754 96.7047 78.5584 96.4407 78.3244C96.1767 78.0844 96.0447 77.7244 96.0447 77.2444V75.6064H96.7647V77.1814C96.7647 77.7454 97.0977 78.0274 97.7637 78.0274C98.1057 78.0274 98.3877 77.9824 98.6097 77.8924C98.8377 77.7964 98.9517 77.6524 98.9517 77.4604V75.6064H99.6717V80.2504H98.9517V78.1174Z" fill="#EA2924"/>
<path d="M102.948 80.3584C102.63 80.3584 102.342 80.3014 102.084 80.1874C101.832 80.0734 101.613 79.9114 101.427 79.7014C101.247 79.4854 101.106 79.2304 101.004 78.9364C100.908 78.6364 100.86 78.3004 100.86 77.9284C100.86 77.5624 100.908 77.2294 101.004 76.9294C101.106 76.6294 101.247 76.3744 101.427 76.1644C101.613 75.9484 101.832 75.7834 102.084 75.6694C102.342 75.5554 102.63 75.4984 102.948 75.4984C103.26 75.4984 103.539 75.5554 103.785 75.6694C104.031 75.7834 104.241 75.9424 104.415 76.1464C104.589 76.3444 104.721 76.5814 104.811 76.8574C104.907 77.1334 104.955 77.4364 104.955 77.7664V78.1084H101.616V78.3244C101.616 78.5224 101.646 78.7084 101.706 78.8824C101.772 79.0504 101.862 79.1974 101.976 79.3234C102.096 79.4494 102.24 79.5484 102.408 79.6204C102.582 79.6924 102.777 79.7284 102.993 79.7284C103.287 79.7284 103.542 79.6594 103.758 79.5214C103.98 79.3834 104.151 79.1854 104.271 78.9274L104.784 79.2964C104.634 79.6144 104.4 79.8724 104.082 80.0704C103.764 80.2624 103.386 80.3584 102.948 80.3584ZM102.948 76.1014C102.75 76.1014 102.57 76.1374 102.408 76.2094C102.246 76.2754 102.105 76.3714 101.985 76.4974C101.871 76.6234 101.781 76.7734 101.715 76.9474C101.649 77.1154 101.616 77.3014 101.616 77.5054V77.5684H104.181V77.4694C104.181 77.0554 104.067 76.7254 103.839 76.4794C103.617 76.2274 103.32 76.1014 102.948 76.1014Z" fill="#EA2924"/>
<path d="M106.142 75.6064H106.862V77.5414H109.184V75.6064H109.904V80.2504H109.184V78.1714H106.862V80.2504H106.142V75.6064Z" fill="#EA2924"/>
<path d="M21.9396 91.6204H22.4706C22.6566 91.3204 22.8066 90.9454 22.9206 90.4954C23.0346 90.0454 23.0916 89.5294 23.0916 88.9474V87.6064H26.2326V91.6204H27.0066V93.5104H26.3496V92.2504H22.5966V93.5104H21.9396V91.6204ZM25.5126 91.6204V88.2364H23.7756V88.9834C23.7756 89.6014 23.7216 90.1294 23.6136 90.5674C23.5116 90.9994 23.3886 91.3504 23.2446 91.6204H25.5126Z" fill="#EA2924"/>
<path d="M27.3625 91.6204H27.9745C28.0525 91.5124 28.1215 91.3834 28.1815 91.2334C28.2415 91.0834 28.2925 90.9034 28.3345 90.6934C28.3765 90.4834 28.4095 90.2344 28.4335 89.9464C28.4575 89.6584 28.4695 89.3194 28.4695 88.9294V87.6064H31.6105V92.2504H30.8905V88.2364H29.1535V88.9474C29.1535 89.3974 29.1355 89.7904 29.0995 90.1264C29.0695 90.4624 29.0245 90.7504 28.9645 90.9904C28.9105 91.2304 28.8445 91.4284 28.7665 91.5844C28.6885 91.7344 28.6045 91.8544 28.5145 91.9444C28.4005 92.0584 28.2745 92.1394 28.1365 92.1874C27.9985 92.2294 27.8335 92.2504 27.6415 92.2504H27.3625V91.6204Z" fill="#EA2924"/>
<path d="M32.7304 91.6204H33.2434L33.5404 90.9364C33.6064 90.7804 33.6874 90.6634 33.7834 90.5854C33.8794 90.5014 33.9874 90.4504 34.1074 90.4324V90.3964C33.6934 90.3604 33.3814 90.2254 33.1714 89.9914C32.9614 89.7574 32.8564 89.4424 32.8564 89.0464C32.8564 88.5964 32.9914 88.2454 33.2614 87.9934C33.5314 87.7354 33.9034 87.6064 34.3774 87.6064H36.4294V92.2504H35.7094V90.4684H34.5034L34.0174 91.6114C33.9094 91.8634 33.7894 92.0344 33.6574 92.1244C33.5314 92.2084 33.3874 92.2504 33.2254 92.2504H32.7304V91.6204ZM35.7094 89.8564V88.2364H34.4854C34.2154 88.2364 34.0054 88.2874 33.8554 88.3894C33.7054 88.4914 33.6304 88.6624 33.6304 88.9024V89.1994C33.6304 89.4394 33.7054 89.6104 33.8554 89.7124C34.0054 89.8084 34.2154 89.8564 34.4854 89.8564H35.7094Z" fill="#EA2924"/>
<path d="M39.3947 91.6204H40.0067C40.0847 91.5124 40.1537 91.3834 40.2137 91.2334C40.2737 91.0834 40.3247 90.9034 40.3667 90.6934C40.4087 90.4834 40.4417 90.2344 40.4657 89.9464C40.4897 89.6584 40.5017 89.3194 40.5017 88.9294V87.6064H43.6427V92.2504H42.9227V88.2364H41.1857V88.9474C41.1857 89.3974 41.1677 89.7904 41.1317 90.1264C41.1017 90.4624 41.0567 90.7504 40.9967 90.9904C40.9427 91.2304 40.8767 91.4284 40.7987 91.5844C40.7207 91.7344 40.6367 91.8544 40.5467 91.9444C40.4327 92.0584 40.3067 92.1394 40.1687 92.1874C40.0307 92.2294 39.8657 92.2504 39.6737 92.2504H39.3947V91.6204Z" fill="#EA2924"/>
<path d="M45.1766 87.6064H45.8786V90.1804L45.8066 91.2964H45.8426L46.4186 90.3064L48.2726 87.6064H48.9386V92.2504H48.2366V89.6764L48.3086 88.5604H48.2726L47.6966 89.5504L45.8426 92.2504H45.1766V87.6064Z" fill="#EA2924"/>
<path d="M54.2116 92.2504H50.4676V87.6064H51.1876V91.6204H53.3746V87.6064H54.0946V91.6204H54.8686V93.5104H54.2116V92.2504Z" fill="#EA2924"/>
<path d="M59.719 92.3584C59.395 92.3584 59.104 92.3014 58.846 92.1874C58.588 92.0734 58.369 91.9114 58.189 91.7014C58.015 91.4914 57.88 91.2364 57.784 90.9364C57.694 90.6364 57.649 90.3004 57.649 89.9284C57.649 89.5564 57.694 89.2204 57.784 88.9204C57.88 88.6204 58.015 88.3654 58.189 88.1554C58.369 87.9454 58.588 87.7834 58.846 87.6694C59.104 87.5554 59.395 87.4984 59.719 87.4984C60.181 87.4984 60.55 87.6004 60.826 87.8044C61.108 88.0024 61.318 88.2634 61.456 88.5874L60.853 88.8934C60.769 88.6534 60.631 88.4674 60.439 88.3354C60.247 88.2034 60.007 88.1374 59.719 88.1374C59.503 88.1374 59.314 88.1734 59.152 88.2454C58.99 88.3114 58.855 88.4074 58.747 88.5334C58.639 88.6534 58.558 88.8004 58.504 88.9744C58.45 89.1424 58.423 89.3284 58.423 89.5324V90.3244C58.423 90.7324 58.531 91.0684 58.747 91.3324C58.969 91.5904 59.293 91.7194 59.719 91.7194C60.301 91.7194 60.721 91.4494 60.979 90.9094L61.501 91.2604C61.351 91.5964 61.126 91.8634 60.826 92.0614C60.532 92.2594 60.163 92.3584 59.719 92.3584Z" fill="#EA2924"/>
<path d="M63.5516 88.2364H61.9676V87.6064H65.8556V88.2364H64.2716V92.2504H63.5516V88.2364Z" fill="#EA2924"/>
<path d="M70.0584 92.2504C69.7884 92.2504 69.5934 92.1784 69.4734 92.0344C69.3594 91.8904 69.2874 91.7104 69.2574 91.4944H69.2124C69.1104 91.7824 68.9424 91.9984 68.7084 92.1424C68.4744 92.2864 68.1954 92.3584 67.8714 92.3584C67.3794 92.3584 66.9954 92.2324 66.7194 91.9804C66.4494 91.7284 66.3144 91.3864 66.3144 90.9544C66.3144 90.5164 66.4734 90.1804 66.7914 89.9464C67.1154 89.7124 67.6164 89.5954 68.2944 89.5954H69.2124V89.1364C69.2124 88.8064 69.1224 88.5544 68.9424 88.3804C68.7624 88.2064 68.4864 88.1194 68.1144 88.1194C67.8324 88.1194 67.5954 88.1824 67.4034 88.3084C67.2174 88.4344 67.0614 88.6024 66.9354 88.8124L66.5034 88.4074C66.6294 88.1554 66.8304 87.9424 67.1064 87.7684C67.3824 87.5884 67.7304 87.4984 68.1504 87.4984C68.7144 87.4984 69.1524 87.6364 69.4644 87.9124C69.7764 88.1884 69.9324 88.5724 69.9324 89.0644V91.6204H70.4634V92.2504H70.0584ZM67.9884 91.7464C68.1684 91.7464 68.3334 91.7254 68.4834 91.6834C68.6334 91.6414 68.7624 91.5814 68.8704 91.5034C68.9784 91.4254 69.0624 91.3354 69.1224 91.2334C69.1824 91.1314 69.2124 91.0204 69.2124 90.9004V90.1354H68.2584C67.8444 90.1354 67.5414 90.1954 67.3494 90.3154C67.1634 90.4354 67.0704 90.6094 67.0704 90.8374V91.0264C67.0704 91.2544 67.1514 91.4314 67.3134 91.5574C67.4814 91.6834 67.7064 91.7464 67.9884 91.7464Z" fill="#EA2924"/>
<path d="M71.491 87.6064H72.211V88.3624H72.247C72.367 88.0684 72.541 87.8524 72.769 87.7144C73.003 87.5704 73.282 87.4984 73.606 87.4984C73.894 87.4984 74.155 87.5554 74.389 87.6694C74.623 87.7834 74.821 87.9454 74.983 88.1554C75.151 88.3654 75.277 88.6204 75.361 88.9204C75.451 89.2204 75.496 89.5564 75.496 89.9284C75.496 90.3004 75.451 90.6364 75.361 90.9364C75.277 91.2364 75.151 91.4914 74.983 91.7014C74.821 91.9114 74.623 92.0734 74.389 92.1874C74.155 92.3014 73.894 92.3584 73.606 92.3584C72.976 92.3584 72.523 92.0704 72.247 91.4944H72.211V94.0504H71.491V87.6064ZM73.408 91.7104C73.816 91.7104 74.137 91.5844 74.371 91.3324C74.605 91.0744 74.722 90.7384 74.722 90.3244V89.5324C74.722 89.1184 74.605 88.7854 74.371 88.5334C74.137 88.2754 73.816 88.1464 73.408 88.1464C73.246 88.1464 73.09 88.1704 72.94 88.2184C72.796 88.2604 72.67 88.3204 72.562 88.3984C72.454 88.4764 72.367 88.5724 72.301 88.6864C72.241 88.7944 72.211 88.9114 72.211 89.0374V90.7654C72.211 90.9154 72.241 91.0504 72.301 91.1704C72.367 91.2844 72.454 91.3834 72.562 91.4674C72.67 91.5454 72.796 91.6054 72.94 91.6474C73.09 91.6894 73.246 91.7104 73.408 91.7104Z" fill="#EA2924"/>
<path d="M76.7117 87.6064H77.4317V91.6204H79.1777V87.6064H79.8977V91.6204H81.6438V87.6064H82.3638V92.2504H76.7117V87.6064Z" fill="#EA2924"/>
<path d="M85.6384 92.3584C85.3204 92.3584 85.0324 92.3014 84.7744 92.1874C84.5224 92.0734 84.3034 91.9114 84.1174 91.7014C83.9374 91.4854 83.7964 91.2304 83.6944 90.9364C83.5984 90.6364 83.5504 90.3004 83.5504 89.9284C83.5504 89.5624 83.5984 89.2294 83.6944 88.9294C83.7964 88.6294 83.9374 88.3744 84.1174 88.1644C84.3034 87.9484 84.5224 87.7834 84.7744 87.6694C85.0324 87.5554 85.3204 87.4984 85.6384 87.4984C85.9504 87.4984 86.2294 87.5554 86.4754 87.6694C86.7214 87.7834 86.9314 87.9424 87.1054 88.1464C87.2794 88.3444 87.4114 88.5814 87.5014 88.8574C87.5974 89.1334 87.6454 89.4364 87.6454 89.7664V90.1084H84.3064V90.3244C84.3064 90.5224 84.3364 90.7084 84.3964 90.8824C84.4624 91.0504 84.5524 91.1974 84.6664 91.3234C84.7864 91.4494 84.9304 91.5484 85.0984 91.6204C85.2724 91.6924 85.4674 91.7284 85.6834 91.7284C85.9774 91.7284 86.2324 91.6594 86.4484 91.5214C86.6704 91.3834 86.8414 91.1854 86.9614 90.9274L87.4744 91.2964C87.3244 91.6144 87.0904 91.8724 86.7724 92.0704C86.4544 92.2624 86.0764 92.3584 85.6384 92.3584ZM85.6384 88.1014C85.4404 88.1014 85.2604 88.1374 85.0984 88.2094C84.9364 88.2754 84.7954 88.3714 84.6754 88.4974C84.5614 88.6234 84.4714 88.7734 84.4054 88.9474C84.3394 89.1154 84.3064 89.3014 84.3064 89.5054V89.5684H86.8714V89.4694C86.8714 89.0554 86.7574 88.7254 86.5294 88.4794C86.3074 88.2274 86.0104 88.1014 85.6384 88.1014Z" fill="#EA2924"/>
<path d="M90.9858 92.2504V91.5844H92.7408V86.5264H92.6778L91.0938 88.0024L90.6528 87.5254L92.3178 85.9684H93.4968V91.5844H95.1168V92.2504H90.9858Z" fill="#EA2924"/>
<path d="M98.2903 92.3584C97.9303 92.3584 97.6153 92.3134 97.3453 92.2234C97.0753 92.1274 96.8473 91.9984 96.6613 91.8364C96.4813 91.6744 96.3433 91.4824 96.2473 91.2604C96.1573 91.0384 96.1123 90.7984 96.1123 90.5404C96.1123 90.1084 96.2293 89.7664 96.4633 89.5144C96.6973 89.2624 97.0033 89.0854 97.3813 88.9834V88.9114C97.0513 88.7974 96.7873 88.6144 96.5893 88.3624C96.3973 88.1044 96.3013 87.7954 96.3013 87.4354C96.3013 86.9554 96.4753 86.5744 96.8233 86.2924C97.1713 86.0044 97.6603 85.8604 98.2903 85.8604C98.9203 85.8604 99.4093 86.0044 99.7573 86.2924C100.105 86.5744 100.279 86.9554 100.279 87.4354C100.279 87.7954 100.18 88.1044 99.9823 88.3624C99.7903 88.6144 99.5293 88.7974 99.1993 88.9114V88.9834C99.5773 89.0854 99.8833 89.2624 100.117 89.5144C100.351 89.7664 100.468 90.1084 100.468 90.5404C100.468 90.7984 100.42 91.0384 100.324 91.2604C100.234 91.4824 100.096 91.6744 99.9103 91.8364C99.7303 91.9984 99.5053 92.1274 99.2353 92.2234C98.9653 92.3134 98.6503 92.3584 98.2903 92.3584ZM98.2903 91.7014C98.7283 91.7014 99.0673 91.6054 99.3073 91.4134C99.5473 91.2154 99.6673 90.9364 99.6673 90.5764V90.3874C99.6673 90.0274 99.5473 89.7514 99.3073 89.5594C99.0673 89.3614 98.7283 89.2624 98.2903 89.2624C97.8523 89.2624 97.5133 89.3614 97.2733 89.5594C97.0333 89.7514 96.9133 90.0274 96.9133 90.3874V90.5764C96.9133 90.9364 97.0333 91.2154 97.2733 91.4134C97.5133 91.6054 97.8523 91.7014 98.2903 91.7014ZM98.2903 88.6324C98.6863 88.6324 98.9863 88.5484 99.1903 88.3804C99.3943 88.2124 99.4963 87.9664 99.4963 87.6424V87.5074C99.4963 87.1834 99.3943 86.9374 99.1903 86.7694C98.9863 86.6014 98.6863 86.5174 98.2903 86.5174C97.8943 86.5174 97.5943 86.6014 97.3903 86.7694C97.1863 86.9374 97.0843 87.1834 97.0843 87.5074V87.6424C97.0843 87.9664 97.1863 88.2124 97.3903 88.3804C97.5943 88.5484 97.8943 88.6324 98.2903 88.6324Z" fill="#EA2924"/>
<path d="M103.345 91.6924V89.8114H101.59V89.1994H103.345V87.3184H104.029V89.1994H105.784V89.8114H104.029V91.6924H103.345Z" fill="#EA2924"/>
<path d="M32.3986 62.5138V57.6118H40.0417V38.652H39.6758L33.9029 46.1873L30 43.1489L36.7893 34.2362H46.1399V57.6118H52.1568V62.5138H32.3986Z" fill="#EA2924"/>
<path d="M65.1505 63C63.4701 63 61.9659 62.7974 60.6378 62.3923C59.3368 61.9602 58.2392 61.3795 57.3448 60.6503C56.4504 59.9211 55.7592 59.0568 55.2714 58.0575C54.8106 57.0582 54.5802 55.9643 54.5802 54.776C54.5802 52.9664 55.0816 51.4945 56.0845 50.3601C57.0873 49.1988 58.4424 48.3885 60.1499 47.9294V47.6053C58.7677 47.0921 57.6293 46.3089 56.7349 45.2555C55.8676 44.2022 55.434 42.8518 55.434 41.2043C55.434 40.124 55.6373 39.1247 56.0438 38.2064C56.4775 37.2881 57.1008 36.5048 57.9139 35.8566C58.7541 35.1814 59.7705 34.6683 60.963 34.3172C62.1827 33.9391 63.5785 33.75 65.1505 33.75C66.7225 33.75 68.1047 33.9391 69.2973 34.3172C70.5169 34.6683 71.5333 35.1814 72.3464 35.8566C73.1866 36.5048 73.8099 37.2881 74.2165 38.2064C74.6501 39.1247 74.867 40.124 74.867 41.2043C74.867 42.8518 74.4198 44.2022 73.5254 45.2555C72.6581 46.3089 71.5333 47.0921 70.151 47.6053V47.9294C71.8585 48.3885 73.2137 49.1988 74.2165 50.3601C75.2193 51.4945 75.7207 52.9664 75.7207 54.776C75.7207 55.9643 75.4768 57.0582 74.9889 58.0575C74.5282 59.0568 73.8506 59.9211 72.9562 60.6503C72.0618 61.3795 70.9506 61.9602 69.6225 62.3923C68.3215 62.7974 66.8309 63 65.1505 63ZM65.1505 58.3411C66.5056 58.3411 67.5356 58.0305 68.2402 57.4093C68.972 56.7611 69.3379 55.8698 69.3379 54.7355V53.9252C69.3379 52.7909 68.972 51.9131 68.2402 51.2919C67.5356 50.6437 66.5056 50.3196 65.1505 50.3196C63.7953 50.3196 62.7518 50.6437 62.0201 51.2919C61.3154 51.9131 60.963 52.7909 60.963 53.9252V54.7355C60.963 55.8698 61.3154 56.7611 62.0201 57.4093C62.7518 58.0305 63.7953 58.3411 65.1505 58.3411ZM65.1505 45.8632C66.4514 45.8632 67.4407 45.5661 68.1183 44.972C68.7959 44.3508 69.1346 43.5135 69.1346 42.4602V41.812C69.1346 40.7587 68.7959 39.9349 68.1183 39.3407C67.4407 38.7195 66.4514 38.4089 65.1505 38.4089C63.8495 38.4089 62.8603 38.7195 62.1827 39.3407C61.5051 39.9349 61.1663 40.7587 61.1663 41.812V42.4602C61.1663 43.5135 61.5051 44.3508 62.1827 44.972C62.8603 45.5661 63.8495 45.8632 65.1505 45.8632Z" fill="#EA2924"/>
<path d="M86.9255 59.9616V52.5073H80.0549V47.7268H86.9255V40.2725H92.1293V47.7268H99V52.5073H92.1293V59.9616H86.9255Z" fill="#EA2924"/>
</svg>
