<svg width="50" height="50" viewBox="0 0 50 50" fill="none" xmlns="http://www.w3.org/2000/svg">
<path d="M5 13C5 12.4477 5.44772 12 6 12H44C44.5523 12 45 12.4477 45 13V16C45 16.5523 44.5523 17 44 17H6C5.44771 17 5 16.5523 5 16V13Z" fill="#252525"/>
<path d="M5 24C5 23.4477 5.44772 23 6 23H44C44.5523 23 45 23.4477 45 24V27C45 27.5523 44.5523 28 44 28H6C5.44771 28 5 27.5523 5 27V24Z" fill="#252525"/>
<path d="M5 35C5 34.4477 5.44772 34 6 34H44C44.5523 34 45 34.4477 45 35V38C45 38.5523 44.5523 39 44 39H6C5.44771 39 5 38.5523 5 38V35Z" fill="#252525"/>
</svg>
