<svg width="30" height="30" viewBox="0 0 30 30" fill="none" xmlns="http://www.w3.org/2000/svg">
<path d="M12.441 25.4971C11.7885 25.4971 11.1705 25.1926 10.7745 24.6676L5.41496 17.5861C5.24926 17.3674 5.12829 17.1182 5.05896 16.8527C4.98963 16.5872 4.97331 16.3107 5.01092 16.0389C5.04854 15.7671 5.13935 15.5054 5.27817 15.2687C5.41699 15.032 5.60109 14.825 5.81996 14.6596C6.03875 14.4934 6.28818 14.372 6.55395 14.3025C6.81973 14.2329 7.09662 14.2164 7.36877 14.254C7.64091 14.2917 7.90296 14.3826 8.13989 14.5217C8.37681 14.6608 8.58396 14.8453 8.74946 15.0646L12.276 19.7206L21.1425 5.48256C21.4365 5.01246 21.905 4.67818 22.4452 4.55305C22.9854 4.42792 23.5532 4.52214 24.024 4.81506C25.0035 5.42406 25.305 6.71406 24.693 7.69506L14.217 24.5101C14.0381 24.7984 13.7916 25.0387 13.4989 25.2102C13.2061 25.3817 12.8759 25.4791 12.537 25.4941C12.504 25.4971 12.474 25.4971 12.441 25.4971Z" fill="#1F99CF"/>
</svg>
