<svg width="38" height="38" viewBox="0 0 38 38" fill="none" xmlns="http://www.w3.org/2000/svg">
<path d="M10.6171 19.9876C10.6171 19.7106 10.7275 19.4449 10.924 19.249C11.1205 19.053 11.387 18.943 11.6649 18.943C11.9428 18.943 12.2093 19.053 12.4058 19.249C12.6023 19.4449 12.7127 19.7106 12.7127 19.9876C12.7127 20.2647 12.6023 20.5304 12.4058 20.7263C12.2093 20.9222 11.9428 21.0323 11.6649 21.0323C11.387 21.0323 11.1205 20.9222 10.924 20.7263C10.7275 20.5304 10.6171 20.2647 10.6171 19.9876ZM11.6649 23.1216C11.387 23.1216 11.1205 23.2317 10.924 23.4276C10.7275 23.6235 10.6171 23.8892 10.6171 24.1662C10.6171 24.4433 10.7275 24.709 10.924 24.9049C11.1205 25.1008 11.387 25.2109 11.6649 25.2109C11.9428 25.2109 12.2093 25.1008 12.4058 24.9049C12.6023 24.709 12.7127 24.4433 12.7127 24.1662C12.7127 23.8892 12.6023 23.6235 12.4058 23.4276C12.2093 23.2317 11.9428 23.1216 11.6649 23.1216ZM10.6171 28.3449C10.6171 28.0678 10.7275 27.8021 10.924 27.6062C11.1205 27.4103 11.387 27.3002 11.6649 27.3002C11.9428 27.3002 12.2093 27.4103 12.4058 27.6062C12.6023 27.8021 12.7127 28.0678 12.7127 28.3449C12.7127 28.6219 12.6023 28.8876 12.4058 29.0835C12.2093 29.2795 11.9428 29.3895 11.6649 29.3895C11.387 29.3895 11.1205 29.2795 10.924 29.0835C10.7275 28.8876 10.6171 28.6219 10.6171 28.3449ZM15.8562 18.943C15.5783 18.943 15.3118 19.053 15.1153 19.249C14.9187 19.4449 14.8084 19.7106 14.8084 19.9876C14.8084 20.2647 14.9187 20.5304 15.1153 20.7263C15.3118 20.9222 15.5783 21.0323 15.8562 21.0323H26.3344C26.6123 21.0323 26.8788 20.9222 27.0753 20.7263C27.2718 20.5304 27.3822 20.2647 27.3822 19.9876C27.3822 19.7106 27.2718 19.4449 27.0753 19.249C26.8788 19.053 26.6123 18.943 26.3344 18.943H15.8562ZM14.8084 24.1662C14.8084 23.8892 14.9187 23.6235 15.1153 23.4276C15.3118 23.2317 15.5783 23.1216 15.8562 23.1216H26.3344C26.6123 23.1216 26.8788 23.2317 27.0753 23.4276C27.2718 23.6235 27.3822 23.8892 27.3822 24.1662C27.3822 24.4433 27.2718 24.709 27.0753 24.9049C26.8788 25.1008 26.6123 25.2109 26.3344 25.2109H15.8562C15.5783 25.2109 15.3118 25.1008 15.1153 24.9049C14.9187 24.709 14.8084 24.4433 14.8084 24.1662ZM15.8562 27.3002C15.5783 27.3002 15.3118 27.4103 15.1153 27.6062C14.9187 27.8021 14.8084 28.0678 14.8084 28.3449C14.8084 28.6219 14.9187 28.8876 15.1153 29.0835C15.3118 29.2795 15.5783 29.3895 15.8562 29.3895H26.3344C26.6123 29.3895 26.8788 29.2795 27.0753 29.0835C27.2718 28.8876 27.3822 28.6219 27.3822 28.3449C27.3822 28.0678 27.2718 27.8021 27.0753 27.6062C26.8788 27.4103 26.6123 27.3002 26.3344 27.3002H15.8562ZM10.6171 2.22852C9.50547 2.22852 8.4394 2.66876 7.65338 3.4524C6.86736 4.23605 6.42578 5.29889 6.42578 6.40713V31.4788C6.42578 32.5871 6.86736 33.6499 7.65338 34.4336C8.4394 35.2172 9.50547 35.6574 10.6171 35.6574H27.3822C28.4938 35.6574 29.5599 35.2172 30.3459 34.4336C31.1319 33.6499 31.5735 32.5871 31.5735 31.4788V13.54C31.5728 12.7091 31.2411 11.9125 30.6514 11.3254L22.4491 3.14572C21.8598 2.55859 21.0608 2.22869 20.2277 2.22852H10.6171ZM8.52142 6.40713C8.52142 5.85301 8.74221 5.32159 9.13522 4.92977C9.52823 4.53795 10.0613 4.31782 10.6171 4.31782H18.9996V11.6304C18.9996 12.4616 19.3308 13.2587 19.9203 13.8464C20.5099 14.4342 21.3094 14.7644 22.1431 14.7644H29.4779V31.4788C29.4779 32.0329 29.2571 32.5644 28.8641 32.9562C28.471 33.348 27.938 33.5681 27.3822 33.5681H10.6171C10.0613 33.5681 9.52823 33.348 9.13522 32.9562C8.74221 32.5644 8.52142 32.0329 8.52142 31.4788V6.40713ZM29.0441 12.6751H22.1431C21.8652 12.6751 21.5987 12.565 21.4022 12.3691C21.2057 12.1732 21.0953 11.9075 21.0953 11.6304V4.75031L29.0441 12.6751Z" fill="black"/>
<mask id="mask0" style="mask-type:alpha" maskUnits="userSpaceOnUse" x="6" y="2" width="26" height="34">
<path d="M10.6171 19.9876C10.6171 19.7106 10.7275 19.4449 10.924 19.249C11.1205 19.053 11.387 18.943 11.6649 18.943C11.9428 18.943 12.2093 19.053 12.4058 19.249C12.6023 19.4449 12.7127 19.7106 12.7127 19.9876C12.7127 20.2647 12.6023 20.5304 12.4058 20.7263C12.2093 20.9222 11.9428 21.0323 11.6649 21.0323C11.387 21.0323 11.1205 20.9222 10.924 20.7263C10.7275 20.5304 10.6171 20.2647 10.6171 19.9876ZM11.6649 23.1216C11.387 23.1216 11.1205 23.2317 10.924 23.4276C10.7275 23.6235 10.6171 23.8892 10.6171 24.1662C10.6171 24.4433 10.7275 24.709 10.924 24.9049C11.1205 25.1008 11.387 25.2109 11.6649 25.2109C11.9428 25.2109 12.2093 25.1008 12.4058 24.9049C12.6023 24.709 12.7127 24.4433 12.7127 24.1662C12.7127 23.8892 12.6023 23.6235 12.4058 23.4276C12.2093 23.2317 11.9428 23.1216 11.6649 23.1216ZM10.6171 28.3449C10.6171 28.0678 10.7275 27.8021 10.924 27.6062C11.1205 27.4103 11.387 27.3002 11.6649 27.3002C11.9428 27.3002 12.2093 27.4103 12.4058 27.6062C12.6023 27.8021 12.7127 28.0678 12.7127 28.3449C12.7127 28.6219 12.6023 28.8876 12.4058 29.0835C12.2093 29.2795 11.9428 29.3895 11.6649 29.3895C11.387 29.3895 11.1205 29.2795 10.924 29.0835C10.7275 28.8876 10.6171 28.6219 10.6171 28.3449ZM15.8562 18.943C15.5783 18.943 15.3118 19.053 15.1153 19.249C14.9187 19.4449 14.8084 19.7106 14.8084 19.9876C14.8084 20.2647 14.9187 20.5304 15.1153 20.7263C15.3118 20.9222 15.5783 21.0323 15.8562 21.0323H26.3344C26.6123 21.0323 26.8788 20.9222 27.0753 20.7263C27.2718 20.5304 27.3822 20.2647 27.3822 19.9876C27.3822 19.7106 27.2718 19.4449 27.0753 19.249C26.8788 19.053 26.6123 18.943 26.3344 18.943H15.8562ZM14.8084 24.1662C14.8084 23.8892 14.9187 23.6235 15.1153 23.4276C15.3118 23.2317 15.5783 23.1216 15.8562 23.1216H26.3344C26.6123 23.1216 26.8788 23.2317 27.0753 23.4276C27.2718 23.6235 27.3822 23.8892 27.3822 24.1662C27.3822 24.4433 27.2718 24.709 27.0753 24.9049C26.8788 25.1008 26.6123 25.2109 26.3344 25.2109H15.8562C15.5783 25.2109 15.3118 25.1008 15.1153 24.9049C14.9187 24.709 14.8084 24.4433 14.8084 24.1662ZM15.8562 27.3002C15.5783 27.3002 15.3118 27.4103 15.1153 27.6062C14.9187 27.8021 14.8084 28.0678 14.8084 28.3449C14.8084 28.6219 14.9187 28.8876 15.1153 29.0835C15.3118 29.2795 15.5783 29.3895 15.8562 29.3895H26.3344C26.6123 29.3895 26.8788 29.2795 27.0753 29.0835C27.2718 28.8876 27.3822 28.6219 27.3822 28.3449C27.3822 28.0678 27.2718 27.8021 27.0753 27.6062C26.8788 27.4103 26.6123 27.3002 26.3344 27.3002H15.8562ZM10.6171 2.22852C9.50547 2.22852 8.4394 2.66876 7.65338 3.4524C6.86736 4.23605 6.42578 5.29889 6.42578 6.40713V31.4788C6.42578 32.5871 6.86736 33.6499 7.65338 34.4336C8.4394 35.2172 9.50547 35.6574 10.6171 35.6574H27.3822C28.4938 35.6574 29.5599 35.2172 30.3459 34.4336C31.1319 33.6499 31.5735 32.5871 31.5735 31.4788V13.54C31.5728 12.7091 31.2411 11.9125 30.6514 11.3254L22.4491 3.14572C21.8598 2.55859 21.0608 2.22869 20.2277 2.22852H10.6171ZM8.52142 6.40713C8.52142 5.85301 8.74221 5.32159 9.13522 4.92977C9.52823 4.53795 10.0613 4.31782 10.6171 4.31782H18.9996V11.6304C18.9996 12.4616 19.3308 13.2587 19.9203 13.8464C20.5099 14.4342 21.3094 14.7644 22.1431 14.7644H29.4779V31.4788C29.4779 32.0329 29.2571 32.5644 28.8641 32.9562C28.471 33.348 27.938 33.5681 27.3822 33.5681H10.6171C10.0613 33.5681 9.52823 33.348 9.13522 32.9562C8.74221 32.5644 8.52142 32.0329 8.52142 31.4788V6.40713ZM29.0441 12.6751H22.1431C21.8652 12.6751 21.5987 12.565 21.4022 12.3691C21.2057 12.1732 21.0953 11.9075 21.0953 11.6304V4.75031L29.0441 12.6751Z" fill="black"/>
</mask>
<g mask="url(#mask0)">
<ellipse cx="11.7351" cy="21.7281" rx="1.67647" ry="3.89994" fill="#1F99CF"/>
<rect x="14" y="27" width="14" height="3" fill="#1F99CF"/>
</g>
</svg>
