<svg width="60" height="60" viewBox="0 0 60 60" fill="none" xmlns="http://www.w3.org/2000/svg">
<path d="M14.9697 24.4922H11.25C10.7829 24.4922 10.3349 24.6782 10.005 25.009C9.67513 25.3398 9.49067 25.7884 9.4922 26.2556L9.5181 39.6086C9.5181 40.5793 10.3051 41.3664 11.2759 41.3664C12.2467 41.3664 13.0337 40.5793 13.0337 39.6086V35.5542C13.7524 35.5506 14.5202 35.5474 14.9697 35.5474C18.0583 35.5474 20.5711 33.0677 20.5711 30.0198C20.5711 26.9719 18.0583 24.4922 14.9697 24.4922ZM14.9697 32.0318C14.5163 32.0318 13.7456 32.035 13.0241 32.0387C13.0204 31.2904 13.0171 30.4845 13.0171 30.0198C13.0171 29.6222 13.0151 28.79 13.013 28.0078H14.9695C16.1002 28.0078 17.0554 28.9291 17.0554 30.0198C17.0554 31.1105 16.1003 32.0318 14.9697 32.0318Z" fill="#1F99CF"/>
<path d="M29.9215 24.4922H26.25C25.7832 24.4922 25.3356 24.6778 25.0058 25.0082C24.6761 25.3385 24.4913 25.7865 24.4922 26.2533C24.4922 26.2534 24.5183 39.1727 24.5184 39.2196C24.5202 39.6859 24.707 40.1324 25.0379 40.4609C25.3673 40.7878 25.8124 40.9711 26.2763 40.9711H26.2829C26.3939 40.9706 29.0127 40.9607 30.0597 40.9424C34.0316 40.873 36.9144 37.4198 36.9144 32.7316C36.9143 27.8034 34.1041 24.4922 29.9215 24.4922ZM29.9982 37.4273C29.543 37.4353 28.7597 37.4418 28.0282 37.4464C28.0233 35.9196 28.0137 29.5945 28.011 28.0078H29.9215C33.148 28.0078 33.3987 31.6235 33.3987 32.7318C33.3987 35.0394 32.3473 37.3863 29.9982 37.4273Z" fill="#1F99CF"/>
<path d="M48.4996 27.8721C49.4704 27.8721 50.2574 27.085 50.2574 26.1143C50.2574 25.1435 49.4704 24.3564 48.4996 24.3564H43.125C42.1542 24.3564 41.3672 25.1435 41.3672 26.1143V39.375C41.3672 40.3457 42.1542 41.1328 43.125 41.1328C44.0958 41.1328 44.8828 40.3457 44.8828 39.375V34.3769H48.0727C49.0434 34.3769 49.8305 33.5899 49.8305 32.6191C49.8305 31.6483 49.0434 30.8613 48.0727 30.8613H44.8828V27.8721H48.4996Z" fill="#1F99CF"/>
<path d="M53.6719 16.9922H52.3828V16.4907C52.3828 14.2311 51.5266 12.0837 49.972 10.4438L42.6707 2.74207C41.0186 0.999492 38.6938 0 36.2924 0H12.8906C9.98285 0 7.61719 2.36566 7.61719 5.27344V16.9922H6.32812C3.42035 16.9922 1.05469 19.3579 1.05469 22.2656V43.3594C1.05469 46.2671 3.42035 48.6328 6.32812 48.6328H7.61719V54.7266C7.61719 57.6343 9.98285 60 12.8906 60H47.1094C50.0171 60 52.3828 57.6343 52.3828 54.7266V48.6328H53.6719C56.5796 48.6328 58.9453 46.2671 58.9453 43.3594V22.2656C58.9453 19.3579 56.5796 16.9922 53.6719 16.9922ZM11.1328 5.27344C11.1328 4.30418 11.9214 3.51562 12.8906 3.51562H36.2924C37.7332 3.51562 39.1281 4.11527 40.1194 5.16094L47.4207 12.8626C48.3536 13.8465 48.8672 15.135 48.8672 16.4907V16.9922H11.1328V5.27344ZM48.8672 54.7266C48.8672 55.6958 48.0786 56.4844 47.1094 56.4844H12.8906C11.9214 56.4844 11.1328 55.6958 11.1328 54.7266V48.6328H48.8672V54.7266ZM55.4297 43.3594C55.4297 44.3286 54.6411 45.1172 53.6719 45.1172H6.32812C5.35887 45.1172 4.57031 44.3286 4.57031 43.3594V22.2656C4.57031 21.2964 5.35887 20.5078 6.32812 20.5078H53.6719C54.6411 20.5078 55.4297 21.2964 55.4297 22.2656V43.3594Z" fill="black"/>
</svg>
