<svg width="38" height="38" viewBox="0 0 38 38" fill="none" xmlns="http://www.w3.org/2000/svg">
<path d="M1.5835 33.2502V4.75016C1.5835 3.91031 1.91713 3.10486 2.51099 2.51099C3.10486 1.91713 3.91031 1.5835 4.75016 1.5835H33.2502C34.09 1.5835 34.8955 1.91713 35.4893 2.51099C36.0832 3.10486 36.4168 3.91031 36.4168 4.75016V33.2502C36.4168 34.09 36.0832 34.8955 35.4893 35.4893C34.8955 36.0832 34.09 36.4168 33.2502 36.4168H4.75016C3.91031 36.4168 3.10486 36.0832 2.51099 35.4893C1.91713 34.8955 1.5835 34.09 1.5835 33.2502Z" stroke="#252525" stroke-width="1.5"/>
<path d="M23.75 11.0835H30.0833" stroke="#1F99CF" stroke-width="1.5" stroke-linecap="round" stroke-linejoin="round"/>
<path d="M23.75 24.542H30.0833" stroke="#252525" stroke-width="1.5" stroke-linecap="round" stroke-linejoin="round"/>
<path d="M23.75 29.292H30.0833" stroke="#252525" stroke-width="1.5" stroke-linecap="round" stroke-linejoin="round"/>
<path d="M11.0837 11.0837V14.2503M7.91699 11.0837H11.0837H7.91699ZM14.2503 11.0837H11.0837H14.2503ZM11.0837 11.0837V7.91699V11.0837Z" stroke="#252525" stroke-width="1.5" stroke-linecap="round" stroke-linejoin="round"/>
<path d="M11.0836 26.9166L13.324 29.1554M8.84473 29.1554L11.0836 26.9166L8.84473 29.1554ZM13.324 24.6777L11.0836 26.9166L13.324 24.6777ZM11.0836 26.9166L8.84473 24.6777L11.0836 26.9166Z" stroke="#1F99CF" stroke-width="1.5" stroke-linecap="round" stroke-linejoin="round"/>
</svg>
