<svg width="38" height="38" viewBox="0 0 38 38" fill="none" xmlns="http://www.w3.org/2000/svg">
<path d="M37.9467 21.0884C37.9466 21.0882 37.9466 21.0881 37.9465 21.0879L30.7719 3.12765C30.6197 2.74604 30.1858 2.55975 29.803 2.71155C29.8028 2.71165 29.8025 2.71174 29.8022 2.71193L0.695971 14.2667C0.577272 14.3178 0.474331 14.3995 0.397591 14.5032C0.155531 14.6286 0.00261083 14.8768 0 15.1487V34.4848C0 34.8955 0.333999 35.2285 0.74595 35.2285H32.0759C32.4878 35.2285 32.8218 34.8955 32.8218 34.4848V23.9243L37.5302 22.0547C37.9129 21.9025 38.0993 21.4699 37.9467 21.0884ZM31.3299 33.7411H1.4919V15.8924H31.3299V33.7411ZM12.4462 14.4088L24.9364 9.44683C26.0511 10.615 27.5957 11.2789 29.2129 11.2852L30.4586 14.4088H12.4462ZM32.8218 22.3269V15.1487C32.8218 14.738 32.4878 14.405 32.0759 14.405H32.0639L30.4832 10.4471C30.4657 10.4141 30.4453 10.3827 30.4221 10.3534C30.3421 9.99521 30.0094 9.75082 29.6426 9.78075C28.1378 9.9175 26.6658 9.28554 25.7315 8.10149C25.4991 7.81544 25.0905 7.74433 24.7745 7.9349C24.7391 7.93908 24.7039 7.94559 24.6693 7.95423L9.4206 14.0079C9.23607 14.0801 9.08847 14.2231 9.01108 14.405H4.38022L29.662 4.36888L36.2852 20.9496L32.8218 22.3269Z" fill="black"/>
<path d="M3.53261 28.72C4.98087 29.1468 6.11416 30.2753 6.54401 31.7186C6.63828 32.0336 6.92892 32.2495 7.25863 32.2496C7.29732 32.2472 7.33574 32.2414 7.3735 32.2325C7.40698 32.242 7.4412 32.2489 7.4757 32.2533H25.3785C25.4093 32.2493 25.4397 32.2431 25.4695 32.2347C25.8422 32.3251 26.2178 32.0972 26.3085 31.7257C26.3088 31.7243 26.3092 31.723 26.3094 31.7216C26.7382 30.2768 27.8717 29.1467 29.3208 28.7193C29.6723 28.6122 29.8907 28.263 29.8326 27.9012C29.8425 27.8651 29.8497 27.8283 29.8542 27.7911V21.8416C29.8498 21.8043 29.8424 21.7675 29.8318 21.7315C29.8903 21.3696 29.6718 21.0202 29.3201 20.9134C27.8709 20.4861 26.7377 19.3556 26.3102 17.9104C26.2022 17.5576 25.8485 17.3393 25.4837 17.4002C25.4492 17.3906 25.414 17.3837 25.3785 17.3794H7.4757C7.43812 17.3839 7.40092 17.3913 7.36455 17.4017C7.00174 17.3441 6.65171 17.5617 6.54401 17.9119C6.11499 19.3564 4.98162 20.4861 3.53261 20.9134C3.18117 21.0205 2.9628 21.3697 3.02089 21.7315C3.01119 21.7677 3.0042 21.8044 3 21.8416V27.7911C3.00429 27.8261 3.01128 27.8607 3.02089 27.8945C2.95972 28.2586 3.17856 28.6117 3.53261 28.72ZM4.4919 22.1435C5.98977 21.5437 7.17695 20.3601 7.77856 18.8668H25.0749C25.6768 20.3601 26.8642 21.5437 28.3623 22.1435V27.4892C26.8649 28.0896 25.6779 29.273 25.0756 30.7659H7.77856C7.17629 29.273 5.9893 28.0896 4.4919 27.4892V22.1435Z" fill="#1F99CF"/>
<path d="M17.74 25.9215C19.07 25.9215 20 24.9952 20 23.6638C20 22.3323 19.07 21.4351 17.74 21.4351H15.1875C15.084 21.4351 15 21.5188 15 21.622V24.8409H14.1875C14.084 24.8409 14 24.9246 14 25.0278V25.7345C14 25.8378 14.084 25.9215 14.1875 25.9215H15V26.4199H14.1875C14.084 26.4199 14 26.5036 14 26.6069V27.23C14 27.3332 14.084 27.4169 14.1875 27.4169H15V28.227C15 28.3302 15.084 28.4139 15.1875 28.4139H16.1025C16.206 28.4139 16.29 28.3302 16.29 28.227V27.4169H18.8125C18.916 27.4169 19 27.3332 19 27.23V26.6069C19 26.5036 18.916 26.4199 18.8125 26.4199H16.29V25.9215H17.74ZM16.29 22.506H17.52C18.25 22.506 18.69 22.9595 18.69 23.6638C18.69 24.3777 18.25 24.8409 17.5 24.8409H16.29V22.506Z" fill="#1F99CF"/>
<path d="M9.20535 25.9318C9.82328 25.9318 10.3243 25.4323 10.3243 24.8162C10.3243 24.2002 9.82328 23.7007 9.20535 23.7007C8.58742 23.7007 8.08643 24.2002 8.08643 24.8162C8.08643 25.4324 8.58742 25.9318 9.20535 25.9318ZM9.20535 24.4444C9.41133 24.4444 9.57833 24.6109 9.57833 24.8162C9.57833 25.0216 9.41133 25.1881 9.20535 25.1881C8.99938 25.1881 8.83238 25.0216 8.83238 24.8162C8.83238 24.6109 8.99938 24.4444 9.20535 24.4444Z" fill="#1F99CF"/>
<path d="M23.6165 25.9318C24.2344 25.9318 24.7354 25.4323 24.7354 24.8162C24.7354 24.2002 24.2344 23.7007 23.6165 23.7007C22.9986 23.7007 22.4976 24.2002 22.4976 24.8162C22.4976 25.4324 22.9986 25.9318 23.6165 25.9318ZM23.6165 24.4444C23.8225 24.4444 23.9895 24.6109 23.9895 24.8162C23.9895 25.0216 23.8225 25.1881 23.6165 25.1881C23.4105 25.1881 23.2435 25.0216 23.2435 24.8162C23.2435 24.6109 23.4105 24.4444 23.6165 24.4444Z" fill="#1F99CF"/>
</svg>
