<svg width="38" height="38" viewBox="0 0 38 38" fill="none" xmlns="http://www.w3.org/2000/svg">
<g clip-path="url(#clip0)">
<path d="M20.6454 22.9826C20.3894 22.983 20.1441 22.8798 19.9652 22.6966L14.1391 16.7419L7.7106 21.0425C7.2779 21.3385 6.68638 21.2286 6.38987 20.7972C6.093 20.3658 6.20321 19.7761 6.63591 19.4801C6.6411 19.4768 6.64667 19.4731 6.65187 19.4694L13.7372 14.7296C14.1175 14.4747 14.6263 14.5276 14.9466 14.8547L20.7278 20.7639L25.3127 17.1578C25.6174 16.918 26.0371 16.8873 26.3736 17.0797L30.9114 19.6747C31.3663 19.9352 31.5237 20.5138 31.2624 20.9677C31.0016 21.4213 30.4208 21.5782 29.9658 21.3181L25.9851 19.0413L21.2333 22.7791C21.0659 22.9112 20.8588 22.9826 20.6454 22.9826Z" fill="#1F99CF"/>
<path d="M20.8022 17.5225C18.8929 17.5225 17.3447 15.9793 17.3447 14.0758C17.3447 12.1719 18.8922 10.6288 20.8018 10.6284C22.7111 10.6284 24.2593 12.1712 24.2597 14.0747C24.2578 15.9778 22.7111 17.5203 20.8022 17.5225ZM20.8022 12.5227C19.942 12.5227 19.2447 13.2179 19.2447 14.0754C19.2447 14.933 19.942 15.6282 20.8022 15.6282C21.662 15.6282 22.3597 14.933 22.3597 14.0754C22.3586 13.2186 21.662 12.5238 20.8022 12.5227Z" fill="#1F99CF"/>
<path d="M37.9926 16.1551C37.9915 16.1454 37.9907 16.1358 37.9892 16.1262C37.984 16.0892 37.9766 16.0526 37.967 16.0163C37.9655 16.0108 37.9633 16.0056 37.9618 16C37.9529 15.969 37.9421 15.9383 37.9299 15.9083C37.9262 15.899 37.9224 15.8905 37.9184 15.8813C37.9054 15.8517 37.8909 15.8228 37.8749 15.7947C37.872 15.7903 37.8697 15.7855 37.8671 15.7807C37.8471 15.7474 37.8256 15.7152 37.8015 15.6845C37.7985 15.68 37.7944 15.6763 37.7911 15.6719C37.771 15.6467 37.7495 15.6227 37.7265 15.5997C37.7191 15.592 37.7113 15.5846 37.7035 15.5772C37.6823 15.5572 37.6601 15.5383 37.6371 15.5202C37.6293 15.5143 37.6219 15.5076 37.6141 15.5017C37.6107 15.4995 37.5885 15.4969 37.5855 15.4947L31.73 11.311V10.362C31.7452 8.75081 30.4475 7.43186 28.8314 7.41669H27.9166L19.5882 0.865971C19.2386 0.592562 18.7458 0.597372 18.4014 0.877071L10.3209 7.41669H9.19756C7.58107 7.41595 6.27037 8.72233 6.27 10.3339V10.362V10.5918L0.357364 15.5387H0.348086C0.130625 15.7174 0.00334014 15.9823 3.05858e-07 16.2635V33.8283C-0.000370788 34.7084 0.336953 35.5553 0.943321 36.1953C0.979688 36.2334 1.01977 36.2682 1.06318 36.2986C1.71 36.916 2.57316 37.2579 3.46898 37.2512H34.531C36.4325 37.2657 37.9855 35.741 38 33.8453C38 33.8397 38 33.8338 38 33.8283V16.2635C38 16.2572 37.9989 16.2516 37.9989 16.2457C37.9981 16.2154 37.9963 16.185 37.9926 16.1551ZM1.9 33.8283V17.9317L6.27 20.5962V20.6765H6.35535L13.9542 25.3492L1.9475 34.203C1.9167 34.0806 1.90074 33.9548 1.9 33.8283ZM15.6962 26.4014L17.1802 27.323C18.2934 28.0149 19.704 28.0175 20.8198 27.3297L22.2756 26.4203L34.4323 35.357H3.52873L15.6962 26.4014ZM24.0202 25.3722L31.6758 20.6765H31.73V20.6158L36.1 17.9583V33.8283C36.0996 33.9629 36.0814 34.0969 36.0466 34.2271L24.0202 25.3722ZM35.2984 16.2021L31.73 18.3915V13.6441L35.2984 16.2021ZM19.0085 2.8283L24.8473 7.41669H13.3364L19.0085 2.8283ZM9.19756 9.31095H28.8024C29.3684 9.30947 29.8281 9.76528 29.83 10.3295V10.362V19.5573L19.8045 25.7207C19.311 26.0322 18.6809 26.0322 18.1877 25.7199L8.17 19.5392V10.362C8.1533 9.79783 8.59898 9.32723 9.1649 9.31095H9.19756ZM6.27 18.3705L2.62475 16.1281L6.27 13.068V18.3705Z" fill="#252525"/>
</g>
<defs>
<clipPath id="clip0">
<rect width="38" height="37.8851" fill="white"/>
</clipPath>
</defs>
</svg>
