<svg width="200" height="39" viewBox="0 0 200 39" fill="none" xmlns="http://www.w3.org/2000/svg">
<path d="M109.682 2H4.31818C1.93332 2 0 3.86548 0 6.16667V32.8333C0 35.1345 1.93332 37 4.31818 37H109.682C112.067 37 114 35.1345 114 32.8333V6.16667C114 3.86548 112.067 2 109.682 2Z" fill="#1F99CF"/>
<path d="M23.6198 31H4L5.02639 26.9739L21.2117 13.0715H9.13193L10.1583 9.04541H29.028L28.0016 13.0715L11.8163 26.9739H24.6461L23.6198 31Z" fill="white"/>
<path d="M44.4728 31L43.8412 25.6529H35.038L31.8009 31H25.6821L39.8541 9.04541H47.1572L50.2759 31H44.4728ZM42.6174 13.1658H42.3016L37.2881 21.847H43.4464L42.6174 13.1658Z" fill="white"/>
<path d="M57.5748 31L59.7065 22.4761L53.864 9.04541H59.7065L63.4173 18.2927H63.6936L71.6284 9.04541H77.9446L65.3516 22.885L63.2988 31H57.5748Z" fill="white"/>
<path d="M99.6969 16.4999H99.46L95.6703 20.7147L89.5514 27.3828L86.6302 20.2429L85.0906 16.437H84.8932L81.2219 31H75.7742L81.3009 9.04541H87.3013L91.2884 19.488H91.4463L100.644 9.04541H107L101.473 31H96.0256L99.6969 16.4999Z" fill="white"/>
<path d="M121 30.6178L126.721 8.38232H137.469C140.33 8.38232 142.537 8.90264 144.09 9.94326C145.67 10.9839 146.46 12.4493 146.46 14.3394C146.46 15.55 146.188 16.6649 145.643 17.6843C145.098 18.6825 144.335 19.5426 143.354 20.2646C142.373 20.9655 141.202 21.5176 139.84 21.9212C138.477 22.3034 136.993 22.4946 135.385 22.4946H129.01L126.926 30.6178H121ZM130.072 18.417H136.162C137.088 18.417 137.878 18.2259 138.532 17.8436C139.213 17.4613 139.663 16.8773 139.88 16.0915C140.017 15.6031 140.126 15.2102 140.207 14.9128C140.289 14.5943 140.33 14.3501 140.33 14.1802C140.33 13.6917 140.112 13.2882 139.676 12.9696C139.267 12.6298 138.614 12.4599 137.715 12.4599H131.585L130.072 18.417Z" fill="#1F99CF"/>
<path d="M152.946 30.6178H147.021L152.742 8.38232H163.858C166.582 8.38232 168.694 8.8814 170.192 9.87955C171.718 10.8778 172.481 12.29 172.481 14.1164C172.481 14.9447 172.331 15.7623 172.031 16.5694C171.731 17.3551 171.282 18.0984 170.683 18.7993C170.083 19.4789 169.348 20.0841 168.476 20.6151C167.631 21.1248 166.637 21.5283 165.492 21.8256L168.925 30.6178H162.591L159.771 22.3671H155.071L152.946 30.6178ZM162.182 18.417C163.109 18.417 163.899 18.2259 164.553 17.8436C165.234 17.4613 165.683 16.8773 165.901 16.0915C166.037 15.6031 166.146 15.2102 166.228 14.9128C166.31 14.5943 166.351 14.3501 166.351 14.1802C166.351 13.6917 166.133 13.2882 165.697 12.9696C165.288 12.6298 164.634 12.4599 163.735 12.4599H157.605L156.093 18.417H162.182Z" fill="#1F99CF"/>
<path d="M185.288 31C183.926 31 182.618 30.8301 181.365 30.4903C180.139 30.1293 179.049 29.5877 178.095 28.8657C177.169 28.1223 176.42 27.1879 175.848 26.0623C175.303 24.9155 175.03 23.5563 175.03 21.9848C175.03 20.0734 175.398 18.2682 176.134 16.5693C176.869 14.8703 177.891 13.3837 179.199 12.1094C180.507 10.8352 182.059 9.83703 183.858 9.11496C185.656 8.37165 187.617 8 189.742 8C191.105 8 192.399 8.18052 193.625 8.54155C194.878 8.88135 195.968 9.4229 196.894 10.1662C197.848 10.8883 198.597 11.8227 199.142 12.9695C199.714 14.0951 200 15.4437 200 17.0152C200 18.9266 199.632 20.7318 198.897 22.4307C198.161 24.1297 197.139 25.6163 195.832 26.8906C194.524 28.1648 192.971 29.1736 191.173 29.9169C189.375 30.639 187.413 31 185.288 31ZM185.697 26.8906C187.604 26.8906 189.17 26.3915 190.396 25.3934C191.622 24.3952 192.467 22.9935 192.93 21.1884L193.788 17.8435C193.87 17.5037 193.924 17.2064 193.952 16.9515C193.979 16.6754 193.993 16.4206 193.993 16.187C193.993 13.4686 192.44 12.1094 189.334 12.1094C187.427 12.1094 185.86 12.6085 184.634 13.6066C183.408 14.6048 182.563 16.0065 182.1 17.8116L181.242 21.1565C181.16 21.4751 181.106 21.7724 181.079 22.0485C181.051 22.3246 181.038 22.5794 181.038 22.813C181.038 25.5314 182.591 26.8906 185.697 26.8906Z" fill="#1F99CF"/>
</svg>
