<svg width="200" height="39" fill="none" xmlns="http://www.w3.org/2000/svg"><path d="M109.682 2H4.318C1.933 2 0 3.865 0 6.167v26.666C0 35.135 1.933 37 4.318 37h105.364c2.385 0 4.318-1.865 4.318-4.167V6.167C114 3.865 112.067 2 109.682 2z" fill="#1F99CF"/><path d="M23.62 31H4l1.026-4.026 16.186-13.902H9.132l1.026-4.027h18.87l-1.026 4.027-16.186 13.902h12.83L23.62 31zm20.853 0l-.632-5.347h-8.803L31.801 31h-6.119L39.854 9.045h7.303L50.276 31h-5.803zm-1.856-17.834h-.315l-5.014 8.681h6.158l-.829-8.681zM57.575 31l2.131-8.524-5.842-13.43h5.843l3.71 9.247h.277l7.934-9.248h6.317l-12.593 13.84L63.299 31h-5.724zm42.122-14.5h-.237l-3.79 4.215-6.119 6.668-2.92-7.14-1.54-3.806h-.198L81.222 31h-5.448l5.527-21.955h6l3.987 10.443h.158l9.198-10.443H107L101.473 31h-5.447l3.67-14.5z" fill="#fff"/><path d="M121 30.618l5.721-22.236h10.748c2.861 0 5.068.52 6.621 1.561 1.58 1.04 2.37 2.506 2.37 4.396 0 1.211-.272 2.326-.817 3.345-.545.998-1.308 1.859-2.289 2.58-.981.701-2.152 1.254-3.514 1.657-1.363.382-2.847.574-4.455.574h-6.375l-2.084 8.123H121zm9.072-12.201h6.09c.926 0 1.716-.191 2.37-.573.681-.383 1.131-.967 1.348-1.753.137-.488.246-.88.327-1.178.082-.319.123-.563.123-.733 0-.488-.218-.892-.654-1.21-.409-.34-1.062-.51-1.961-.51h-6.13l-1.513 5.957zm22.874 12.201h-5.925l5.721-22.236h11.116c2.724 0 4.836.5 6.334 1.498 1.526.998 2.289 2.41 2.289 4.236 0 .829-.15 1.646-.45 2.453a7.602 7.602 0 01-1.348 2.23c-.6.68-1.335 1.285-2.207 1.816-.845.51-1.839.913-2.984 1.21l3.433 8.793h-6.334l-2.82-8.25h-4.7l-2.125 8.25zm9.236-12.201c.927 0 1.717-.191 2.371-.573.681-.383 1.13-.967 1.348-1.753l.327-1.178c.082-.319.123-.563.123-.733 0-.488-.218-.892-.654-1.21-.409-.34-1.063-.51-1.962-.51h-6.13l-1.512 5.957h6.089zM185.288 31c-1.362 0-2.67-.17-3.923-.51a10.082 10.082 0 01-3.27-1.624c-.926-.744-1.675-1.678-2.247-2.804-.545-1.146-.818-2.506-.818-4.077 0-1.912.368-3.717 1.104-5.416a13.829 13.829 0 013.065-4.46c1.308-1.274 2.86-2.272 4.659-2.994C185.656 8.372 187.617 8 189.742 8c1.363 0 2.657.18 3.883.542 1.253.34 2.343.88 3.269 1.624.954.722 1.703 1.657 2.248 2.803.572 1.126.858 2.475.858 4.046 0 1.912-.368 3.717-1.103 5.416a13.86 13.86 0 01-3.065 4.46c-1.308 1.274-2.861 2.283-4.659 3.026-1.798.722-3.76 1.083-5.885 1.083zm.409-4.11c1.907 0 3.473-.498 4.699-1.497 1.226-.998 2.071-2.4 2.534-4.205l.858-3.345a7.23 7.23 0 00.164-.892c.027-.276.041-.53.041-.764 0-2.718-1.553-4.078-4.659-4.078-1.907 0-3.474.5-4.7 1.498s-2.071 2.4-2.534 4.205l-.858 3.345a5.897 5.897 0 00-.163.892 7.58 7.58 0 00-.041.764c0 2.718 1.553 4.078 4.659 4.078z" fill="#1F99CF"/></svg>